<?xml version="1.0" encoding="UTF-8"?>
<svg version="1.1" xmlns="http://www.w3.org/2000/svg" width="8000" height="2659">
<path d="M0 0 C3.42353141 2.74115582 4.71727305 6.52395071 6.34375 10.4609375 C6.66475174 11.22117722 6.98575348 11.98141693 7.31648254 12.76469421 C8.38451236 15.29863857 9.44213782 17.83679599 10.5 20.375 C11.25733707 22.17665356 12.01540843 23.97799861 12.77416992 25.77905273 C14.37581222 29.5837277 15.9734166 33.3900612 17.56787109 37.19775391 C21.07299936 45.56556274 24.605937 53.92161786 28.13671875 62.27862549 C29.3250228 65.09214999 30.51225104 67.90612634 31.69921875 70.72021484 C37.85456503 85.31028396 44.05011054 99.88302282 50.25741577 114.4510498 C56.01008882 127.95333002 61.7358515 141.46660837 67.43591309 154.99118042 C74.55274428 171.87712455 81.72562764 188.7376995 88.95629883 205.57519531 C94.61084077 218.74469125 100.23372935 231.92746765 105.84552002 245.11523438 C122.38866985 283.99008781 138.97190514 322.84592282 155.92449951 361.54431152 C157.04032779 364.09208038 158.15526196 366.64023906 159.27001953 369.18847656 C167.65945517 388.36330481 176.08409736 407.52026808 184.67578125 426.60546875 C187.12242167 432.04038363 189.55487595 437.48144352 191.98046875 442.92578125 C199.80592762 460.4828932 207.71482741 477.99742382 215.76464844 495.45288086 C219.13226776 502.75611263 222.49142304 510.06254135 225.8046875 517.390625 C226.11144913 518.06904449 226.41821075 518.74746399 226.73426819 519.44644165 C227.03956955 520.12169891 227.34487091 520.79695618 227.65942383 521.49267578 C235.20179441 538.1743838 242.96825366 554.74325566 250.8162384 571.28312683 C254.24837536 578.51793305 257.65998126 585.76232492 261.06729126 593.0088501 C262.06409376 595.12838888 263.06161487 597.24758809 264.05932617 599.36669922 C267.01076024 605.63659302 269.95889514 611.9079603 272.89273071 618.18611145 C281.80349728 637.25258717 290.93561909 656.20187228 300.18713379 675.10533142 C300.59846558 675.94584549 301.00979736 676.78635956 301.43359375 677.65234375 C302.03898987 678.8893679 302.03898987 678.8893679 302.65661621 680.15138245 C305.76217861 686.50203566 308.83434927 692.86798755 311.875 699.25 C312.29604004 700.13268555 312.71708008 701.01537109 313.15087891 701.92480469 C314.90821093 705.61012295 316.66460426 709.295888 318.42041016 712.98193359 C327.44809216 731.90112055 336.78769784 750.65702347 346.2097168 769.38256836 C350.92364216 778.76300807 355.58101268 788.16196557 360.078125 797.6484375 C367.19626687 812.64245945 374.65785122 827.46689707 382.08862305 842.30761719 C384.1542223 846.43310173 386.21616804 850.56040017 388.27717781 854.68817902 C398.64154919 875.48833876 398.64154919 875.48833876 409.3740387 896.09967041 C413.02064823 902.9668935 416.49840304 909.91759734 419.96875 916.875 C420.27464994 917.48822868 420.58054989 918.10145737 420.89571953 918.73326874 C423.41833294 923.79250545 425.93569269 928.85435264 428.45294189 933.91625977 C430.64333413 938.32035974 432.83567798 942.72347981 435.03125 947.125 C435.33416458 947.73234985 435.63707916 948.33969971 435.94917297 948.9654541 C440.49626007 958.0744384 445.16397599 967.11064514 449.93945312 976.1015625 C452.5510726 981.02270893 455.03863197 986.00231844 457.5 991 C460.91388413 997.8811102 464.39650296 1004.71627382 468 1011.5 C471.60353247 1018.28379287 475.0836355 1025.12008694 478.5 1032 C482.13058232 1039.30573092 485.84160271 1046.55688906 489.66796875 1053.76171875 C494.36270069 1062.63115078 498.92379615 1071.56906052 503.5 1080.5 C508.74119612 1090.7263106 513.98519279 1100.94882144 519.36425781 1111.10351562 C523.03756803 1118.04585083 526.64494714 1125.02206146 530.25 1132 C530.56921417 1132.61780334 530.88842834 1133.23560669 531.21731567 1133.87213135 C532.51337167 1136.38060311 533.80933206 1138.88912422 535.1051178 1141.3977356 C543.7229308 1158.08008392 552.3741875 1174.74505729 561.0703125 1191.38671875 C563.05077498 1195.1776441 565.02405083 1198.97219274 566.9921875 1202.76953125 C571.77401939 1211.9849732 576.61059795 1221.15882744 581.625 1230.25 C587.36305394 1240.66275548 592.77439914 1251.23496438 598.18588257 1261.81951904 C602.66068209 1270.56763484 607.17185327 1279.28054307 611.9375 1287.875 C617.34869427 1297.63667148 622.42504425 1307.56099575 627.5 1317.5 C633.07624859 1328.42035123 638.7060396 1339.29032365 644.64453125 1350.01953125 C648.7373209 1357.44127515 652.62701187 1364.96225675 656.5 1372.5 C661.40072744 1382.03676798 666.40750094 1391.50268938 671.58203125 1400.89453125 C675.32610859 1407.71015729 678.93141899 1414.59105811 682.5 1421.5 C686.5524731 1429.3454726 690.67897235 1437.13942983 694.9375 1444.875 C700.04777437 1454.16024654 704.93501808 1463.55074753 709.78881836 1472.97216797 C713.43582152 1480.03324801 717.16578596 1487.03895365 721 1494 C725.46271426 1502.10209353 729.76358434 1510.27738939 734 1518.5 C738.64047496 1527.50271069 743.37688679 1536.43892402 748.2565918 1545.31396484 C752.68261803 1553.3787823 757.00430817 1561.49686446 761.3125 1569.625 C762.77461295 1572.38287966 764.2368293 1575.14070444 765.69921875 1577.8984375 C766.06061447 1578.57997391 766.42201019 1579.26151031 766.7943573 1579.96369934 C772.2153284 1590.18176486 777.68875311 1600.37175354 783.15722656 1610.56445312 C786.2739132 1616.37500086 789.38674212 1622.18761467 792.5 1628 C793.74998194 1630.33334301 794.99998193 1632.66667635 796.25 1635 C803.75000002 1649.00000003 803.75000002 1649.00000003 805.62524414 1652.50048828 C806.8743942 1654.83221337 808.12358036 1657.16391912 809.37280273 1659.49560547 C812.19517673 1664.76369362 815.01732259 1670.03190305 817.8379364 1675.30093384 C818.78498409 1677.06999092 819.73220122 1678.83895719 820.67944336 1680.60791016 C821.92422137 1682.93285142 823.16853295 1685.25804247 824.41235352 1687.58349609 C827.60870159 1693.55503035 830.82005926 1699.51789739 834.0546875 1705.46875 C835.03372536 1707.2734678 836.01248654 1709.07833539 836.99118042 1710.88323975 C837.91954288 1712.5919488 838.8524282 1714.29819806 839.78540039 1716.00439453 C840.3396167 1717.02645996 840.89383301 1718.04852539 841.46484375 1719.1015625 C841.955896 1720.00213379 842.44694824 1720.90270508 842.95288086 1721.83056641 C844 1724 844 1724 844 1726 C840.42029938 1724.64807898 837.15792795 1723.05175652 833.8359375 1721.15625 C832.815 1720.57883057 831.7940625 1720.00141113 830.7421875 1719.40649414 C829.63101563 1718.77735107 828.51984375 1718.14820801 827.375 1717.5 C753.99613555 1676.33993202 675.50064048 1646.2358105 550 1610 C557.89899086 1614.56397195 565.81651151 1619.02708676 573.9375 1623.1875 C585.46038936 1629.16541362 596.74884814 1635.52768404 608 1642 C608.95745117 1642.55026855 609.91490234 1643.10053711 610.90136719 1643.66748047 C627.42529841 1653.18555387 643.75318619 1663.0182142 660 1673 C660.84272461 1673.5170752 661.68544922 1674.03415039 662.55371094 1674.56689453 C685.84685895 1688.91455673 708.53978435 1704.38780163 731 1720 C732.04800781 1720.72823975 732.04800781 1720.72823975 733.1171875 1721.47119141 C750.41869441 1733.52441612 767.29836117 1746.13201137 784 1759 C785.16392232 1759.89471364 786.32797791 1760.78925395 787.4921875 1761.68359375 C789.63030574 1763.32632907 791.76674865 1764.97116501 793.90234375 1766.6171875 C795.97399833 1768.21076795 798.0495557 1769.79928711 800.12890625 1771.3828125 C806.84968299 1776.50596815 813.44347118 1781.76553004 819.98754883 1787.11254883 C824.2887623 1790.62301856 828.62349068 1794.08395908 833 1797.5 C838.73810881 1801.98026164 844.39371773 1806.55519437 850.0324707 1811.15966797 C854.37755126 1814.70111623 858.76448158 1818.18157626 863.1875 1821.625 C868.27286381 1825.58791865 873.21445872 1829.68893743 878.11279297 1833.87988281 C882.49959072 1837.6165394 887.00080008 1841.18640792 891.54760742 1844.72558594 C896.83717512 1848.84953165 902.04274365 1853.07213569 907.23168945 1857.32177734 C907.85261475 1857.82918457 908.47354004 1858.3365918 909.11328125 1858.859375 C909.73823486 1859.37540283 910.36318848 1859.89143066 911.00708008 1860.4230957 C912.39052762 1861.51775302 913.81378178 1862.56319841 915.2644043 1863.56713867 C921.62779447 1868.06839853 924.74402207 1872.89386437 928.1875 1879.8125 C929.30426497 1881.96245911 930.4214678 1884.11219083 931.5390625 1886.26171875 C932.10657227 1887.3707959 932.67408203 1888.47987305 933.25878906 1889.62255859 C936.11613291 1895.16497234 939.09452666 1900.64128865 942.0625 1906.125 C943.24245203 1908.317566 944.42214207 1910.510273 945.6015625 1912.703125 C948.6924867 1918.43868091 951.81026489 1924.15918223 954.9375 1929.875 C959.83351775 1938.82485136 964.65779681 1947.81226926 969.46697998 1956.80895996 C973.63216875 1964.59934215 977.822846 1972.37484983 982.0625 1980.125 C988.16519306 1991.28081311 994.19232783 2002.4767147 1000.21337891 2013.67675781 C1003.16145262 2019.1603844 1006.11155564 2024.64291776 1009.0625 2030.125 C1009.93237549 2031.74100098 1009.93237549 2031.74100098 1010.81982422 2033.38964844 C1015.2340271 2041.58621974 1019.66567366 2049.77323985 1024.10351562 2057.95703125 C1028.10460956 2065.33844334 1032.08611931 2072.73025066 1036.0625 2080.125 C1040.32775371 2088.05630043 1044.61509546 2095.97470602 1048.9375 2103.875 C1053.83387683 2112.82550776 1058.65871945 2121.81347866 1063.46798706 2130.81097412 C1067.61061675 2138.55982496 1071.78044121 2146.29273001 1076 2154 C1081.19428668 2163.48766727 1086.30655173 2173.01835392 1091.40063477 2182.56005859 C1094.44540193 2188.25671975 1097.50710445 2193.94239572 1100.62109375 2199.6015625 C1101.18183594 2200.62121094 1101.74257812 2201.64085938 1102.3203125 2202.69140625 C1103.37517045 2204.60492876 1104.43360001 2206.51648799 1105.49609375 2208.42578125 C1105.96015625 2209.26753906 1106.42421875 2210.10929687 1106.90234375 2210.9765625 C1107.30960693 2211.70955566 1107.71687012 2212.44254883 1108.13647461 2213.19775391 C1109 2215 1109 2215 1109 2217 C1105.45565573 2215.65544302 1102.19200807 2214.08771656 1098.88671875 2212.234375 C1097.89881348 2211.68144775 1096.9109082 2211.12852051 1095.89306641 2210.55883789 C1094.83522949 2209.96192139 1093.77739258 2209.36500488 1092.6875 2208.75 C1091.57810059 2208.12665771 1090.46870117 2207.50331543 1089.32568359 2206.86108398 C1081.88358641 2202.66561356 1074.49213484 2198.38827035 1067.125 2194.0625 C1055.30567286 2187.12324777 1043.33361243 2180.47549386 1031.33740234 2173.84814453 C1026.00644946 2170.89603675 1020.69035543 2167.91757357 1015.375 2164.9375 C1014.35083984 2164.36386719 1013.32667969 2163.79023438 1012.27148438 2163.19921875 C1007.10862195 2160.30671286 1001.94886659 2157.40880861 996.79296875 2154.50390625 C985.1214109 2147.93590914 973.39385628 2141.49264278 961.58349609 2135.17749023 C954.55618505 2131.40906179 947.60623833 2127.52611414 940.6875 2123.5625 C930.82340738 2117.92341058 920.77519486 2112.68508746 910.66625977 2107.50488281 C903.59313907 2103.87736241 896.57809473 2100.16621036 889.625 2096.3125 C875.51292569 2088.52260284 861.11066854 2081.28324154 846.75318909 2073.95977783 C840.8789227 2070.96267289 835.01150952 2067.95253336 829.1484375 2064.93359375 C800.37589623 2050.1232086 771.56379372 2035.35852316 742.29101562 2021.55566406 C739.08837394 2020.04177439 735.88974242 2018.51973524 732.69204712 2016.99543762 C710.55941842 2006.44565791 688.34949713 1996.08252685 666 1986 C665.27379456 1985.67213501 664.54758911 1985.34427002 663.79937744 1985.00646973 C616.18073417 1963.51925529 567.87434712 1943.4595145 519 1925 C518.31963684 1924.74277161 517.63927368 1924.48554321 516.93829346 1924.22052002 C431.10435947 1891.80692579 343.5489143 1865.0760888 253.69873047 1846.32104492 C252.97390976 1846.16872406 252.24908905 1846.0164032 251.50230408 1845.85946655 C249.57444887 1845.45531018 247.6455395 1845.05619132 245.71655273 1844.6574707 C243 1844 243 1844 242 1843 C242.09816189 1834.73644465 244.05890884 1826.41381488 245.46862793 1818.28939819 C248.12647811 1802.90696054 250.43831542 1787.53743812 252 1772 C252.14646973 1770.55028809 252.14646973 1770.55028809 252.29589844 1769.07128906 C252.58397877 1766.15265699 252.85841801 1763.23317034 253.125 1760.3125 C253.23859863 1759.08696411 253.23859863 1759.08696411 253.35449219 1757.83666992 C254.85648054 1740.18830676 255.23903308 1722.45450684 255.25 1704.75 C255.25067474 1703.74720001 255.25134949 1702.74440002 255.25204468 1701.71121216 C255.16606217 1619.93863207 240.08971107 1536.6415167 206 1462 C205.54383301 1460.99952637 205.08766602 1459.99905273 204.61767578 1458.96826172 C188.82249449 1424.6080756 169.02406957 1392.40835676 143.3203125 1364.54296875 C141.40414871 1362.44293066 139.57049275 1360.30684684 137.75 1358.125 C119.96874219 1337.82128469 96.41608545 1321.26180307 72 1310 C70.82566406 1309.45472656 69.65132812 1308.90945313 68.44140625 1308.34765625 C30.36378874 1291.36184049 -12.75628664 1289.00823762 -52.06298828 1303.44384766 C-71.9666328 1311.12967001 -90.31229281 1321.70373801 -107 1335 C-107.98871094 1335.78375 -108.97742187 1336.5675 -109.99609375 1337.375 C-123.6116059 1348.41547439 -136.38508535 1361.04195386 -147 1375 C-148.02237411 1376.30682221 -149.04590712 1377.61273822 -150.0703125 1378.91796875 C-200.49038019 1443.52722985 -227.11463576 1524.05685258 -240.203125 1776 C-237.66353243 1796.0600942 -234.09486976 1816.05508598 -229.6640625 1835.78125 C-229 1839 -229 1839 -229 1842 C-229.81397499 1842.16674225 -229.81397499 1842.16674225 -230.64439392 1842.33685303 C-311.88654309 1859.00650526 -391.79839955 1880.26705758 -470 1908 C-470.9379541 1908.33134949 -471.8759082 1908.66269897 -472.84228516 1909.00408936 C-528.06667213 1928.52031402 -582.36578506 1950.48003589 -636 1974 C-637.95719287 1974.85644791 -639.91438689 1975.71289321 -641.87158203 1976.56933594 C-664.94085021 1986.67615028 -687.847901 1997.08133775 -710.57279968 2007.93997192 C-715.6139454 2010.34668464 -720.66824424 2012.72391273 -725.73046875 2015.0859375 C-740.73996834 2022.09411215 -755.65482162 2029.24585875 -770.44458008 2036.70751953 C-777.77316465 2040.40286334 -785.13877736 2043.99979709 -792.5625 2047.5 C-802.5525183 2052.22194156 -812.36058386 2057.26884459 -822.15673828 2062.3762207 C-829.875818 2066.39863239 -837.63469974 2070.3295126 -845.4375 2074.1875 C-853.81191584 2078.33893745 -862.04104207 2082.69740008 -870.22045898 2087.21948242 C-878.23714109 2091.63210661 -886.35799007 2095.82524698 -894.5 2100 C-905.26829537 2105.5251603 -915.95300481 2111.17138291 -926.5546875 2117.01171875 C-931.55311988 2119.76462514 -936.57982683 2122.46275088 -941.6105957 2125.15600586 C-951.96800034 2130.70219957 -962.24803784 2136.36044905 -972.45678711 2142.17553711 C-979.25737559 2146.04040047 -986.11207188 2149.7932971 -993 2153.5 C-1002.79094955 2158.77235396 -1012.48871078 2164.19269152 -1022.15625 2169.6875 C-1027.18563003 2172.54494803 -1032.23422054 2175.36670854 -1037.28735352 2178.18188477 C-1046.58127041 2183.36149853 -1055.82329438 2188.61527791 -1065 2194 C-1073.5186675 2198.9961178 -1082.07819013 2203.9119585 -1090.6875 2208.75 C-1091.74517578 2209.34683594 -1092.80285156 2209.94367187 -1093.89257812 2210.55859375 C-1094.88064453 2211.11160156 -1095.86871094 2211.66460938 -1096.88671875 2212.234375 C-1098.18935669 2212.96479004 -1098.18935669 2212.96479004 -1099.51831055 2213.70996094 C-1101.9644976 2214.98154504 -1104.42381049 2216.02271525 -1107 2217 C-1105.38866553 2211.10795166 -1102.41268062 2206.1814865 -1099.375 2200.9375 C-1098.19002588 2198.86667468 -1097.00649879 2196.79502086 -1095.82421875 2194.72265625 C-1095.19950684 2193.62840332 -1094.57479492 2192.53415039 -1093.93115234 2191.40673828 C-1090.63393076 2185.59012261 -1087.41043651 2179.73296267 -1084.1875 2173.875 C-1083.51101929 2172.64654761 -1082.83450539 2171.41811348 -1082.15795898 2170.18969727 C-1080.78903753 2167.70356988 -1079.4206947 2165.21712511 -1078.05273438 2162.73046875 C-1074.68523773 2156.60963776 -1071.31173801 2150.49211658 -1067.9375 2144.375 C-1067.44098938 2143.47479126 -1067.44098938 2143.47479126 -1066.93444824 2142.55639648 C-1059.0379065 2128.24120846 -1051.09259302 2113.9531925 -1043.14550781 2099.66601562 C-1036.07621184 2086.95541403 -1029.02102655 2074.23731694 -1022 2061.5 C-1014.98055206 2048.76554692 -1007.92675275 2036.05042839 -1000.85888672 2023.34277344 C-997.73741652 2017.72953862 -994.61882869 2012.11470279 -991.5 2006.5 C-987.76312563 1999.77265426 -984.0257015 1993.04561801 -980.28515625 1986.3203125 C-971.83061354 1971.11656885 -963.41358974 1955.89252665 -955.01611328 1940.65722656 C-952.01181494 1935.20692669 -949.00488729 1929.75807764 -945.99816895 1924.30911255 C-945.0009095 1922.50164841 -944.00384357 1920.69407766 -943.00683594 1918.88647461 C-939.98119845 1913.40116987 -936.95450938 1907.91645663 -933.9230957 1902.43434143 C-926.72838141 1889.42295337 -919.57019715 1876.39407171 -912.50439453 1863.31201172 C-909.0462281 1856.91488755 -905.54675733 1850.54299322 -902.00488281 1844.19189453 C-897.41345541 1835.95817669 -892.86372736 1827.70150825 -888.31201172 1819.44580078 C-887.61555991 1818.18261718 -886.91910809 1816.91943359 -886.22265625 1815.65625 C-885.70037445 1814.70889481 -885.70037445 1814.70889481 -885.1675415 1813.74240112 C-882.73842349 1809.33700517 -880.30556734 1804.93368822 -877.87109375 1800.53125 C-871.02835165 1788.15353711 -864.22571576 1775.75627775 -857.50439453 1763.31201172 C-853.64768784 1756.17764383 -849.73017268 1749.079704 -845.78125 1741.99609375 C-842.23414916 1735.63116541 -838.70955472 1729.2538095 -835.1875 1722.875 C-834.84330017 1722.25176849 -834.49910034 1721.62853699 -834.14447021 1720.98641968 C-828.94672372 1711.57133813 -823.81366265 1702.12303822 -818.71240234 1692.65527344 C-815.16554268 1686.09396491 -811.51419132 1679.59994354 -807.8125 1673.125 C-801.91344282 1662.79370767 -796.35982441 1652.29384711 -790.82510376 1641.76495361 C-785.70212858 1632.02504201 -780.45289225 1622.38470492 -774.97265625 1612.83984375 C-770.11809673 1604.32923192 -765.55808864 1595.67153186 -761 1587 C-755.48765695 1576.51304766 -749.87251665 1566.11555969 -743.97265625 1555.83984375 C-738.70284692 1546.60125034 -733.77700931 1537.18691609 -728.82977295 1527.77328491 C-723.57018723 1517.77152436 -718.17114419 1507.87487219 -712.55297852 1498.06860352 C-708.3235139 1490.65548361 -704.35806222 1483.1230197 -700.44116211 1475.54101562 C-697.10262766 1469.08633311 -693.68266055 1462.68366841 -690.1875 1456.3125 C-685.64193075 1448.02409287 -681.14642712 1439.71034498 -676.6875 1431.375 C-676.21586929 1430.49347763 -676.21586929 1430.49347763 -675.73471069 1429.59414673 C-674.13042625 1426.59525512 -672.52673771 1423.59604539 -670.92333984 1420.59667969 C-667.78619205 1414.72899625 -664.6426463 1408.86473982 -661.5 1403 C-658.05317059 1396.56663764 -654.6064364 1390.1332249 -651.16183472 1383.69866943 C-644.21310272 1370.71841746 -637.25145182 1357.74529773 -630.26708984 1344.78417969 C-624.12216887 1333.37735755 -618.00610914 1321.95510898 -611.89111328 1310.53222656 C-609.38593703 1305.85273115 -606.87929771 1301.1740197 -604.37255859 1296.49536133 C-603.12391519 1294.16461457 -601.87554289 1291.83372255 -600.62744141 1289.50268555 C-597.49543747 1283.65374777 -594.35930068 1277.8070972 -591.21484375 1271.96484375 C-584.38621895 1259.26661619 -577.65780224 1246.52469822 -571.05175781 1233.70922852 C-567.52119141 1226.87858812 -563.90289592 1220.10666161 -560.1875 1213.375 C-554.71794232 1203.46090445 -549.54681168 1193.40364991 -544.38705444 1183.32635498 C-540.03086336 1174.82303738 -535.62490566 1166.36139771 -531 1158 C-524.02066526 1145.37600945 -517.50295141 1132.51467638 -510.92127991 1119.6807251 C-508.20850283 1114.39526494 -505.46360281 1109.12750617 -502.6875 1103.875 C-502.10814697 1102.77828979 -502.10814697 1102.77828979 -501.51708984 1101.65942383 C-500.74372928 1100.19576013 -499.97029199 1098.73213697 -499.19677734 1097.26855469 C-490.9464433 1081.6296106 -482.85658779 1065.90802371 -474.77758789 1050.18017578 C-470.18235406 1041.23561656 -465.57209794 1032.29924543 -460.9375 1023.375 C-455.05623997 1012.04971024 -449.20605903 1000.70865811 -443.36889648 989.3605957 C-440.08157537 982.97127568 -436.78899563 976.58511383 -433.46484375 970.21484375 C-424.09658143 952.24156086 -415.026876 934.12473762 -406.00585938 915.97485352 C-405.48695633 914.93278244 -404.96805328 913.89071136 -404.4334259 912.81706238 C-403.47429025 910.89074653 -402.51679513 908.96361222 -401.56156921 907.03535461 C-398.52615809 900.94264962 -395.38203838 894.91300458 -392.20019531 888.89599609 C-387.30005772 879.62269239 -382.56374021 870.27415129 -377.87890625 860.890625 C-377.04527647 859.22404295 -376.21152823 857.55752015 -375.37767029 855.89105225 C-373.64623629 852.42964175 -371.9162155 848.96752987 -370.18725586 845.50488281 C-368.00723223 841.13915472 -365.82359911 836.77524362 -363.63899517 832.41180611 C-355.47858141 816.10924069 -347.34901375 799.79995774 -339.53833008 783.32617188 C-336.70193921 777.35170733 -333.79375506 771.41306124 -330.87890625 765.4765625 C-330.36036575 764.42045776 -329.84182526 763.36435303 -329.30757141 762.27624512 C-327.72673691 759.05874177 -326.14481924 755.84177341 -324.5625 752.625 C-316.28338676 735.79306269 -308.08676769 718.92522032 -300 702 C-297.21869234 703.35159631 -294.95043834 704.72223361 -292.59375 706.73046875 C-291.942854 707.27840088 -291.29195801 707.82633301 -290.62133789 708.39086914 C-289.92129639 708.98375732 -289.22125488 709.57664551 -288.5 710.1875 C-282.14784795 715.48981218 -275.6886041 720.60663922 -269.0625 725.5625 C-267.95841797 726.38947388 -267.95841797 726.38947388 -266.83203125 727.2331543 C-264.23041712 729.1680495 -261.61693434 731.0858631 -259 733 C-258.37452271 733.45852356 -257.74904541 733.91704712 -257.10461426 734.38946533 C-245.62736164 742.79027494 -233.96909403 750.87587793 -222.125 758.75 C-221.28471252 759.30971497 -220.44442505 759.86942993 -219.57867432 760.44610596 C-204.62927398 770.3915554 -189.49847182 779.9319878 -174 789 C-173.0929834 789.53157715 -172.1859668 790.0631543 -171.25146484 790.61083984 C-166.1337868 793.59734664 -160.98705938 796.52813687 -155.81640625 799.421875 C-153.83992449 800.5293627 -151.86619782 801.64177482 -149.89453125 802.7578125 C-130.38228022 813.7955119 -110.47043595 823.92116651 -90.36889648 833.83862305 C-86.7884774 835.60668398 -83.216878 837.39172838 -79.64828491 839.18351746 C-51.33489313 853.39657654 -22.14926556 865.62478472 7 878 C0.80931716 873.3498229 0.80931716 873.3498229 -5.41015625 868.73828125 C-6.16433838 868.18269531 -6.91852051 867.62710938 -7.69555664 867.0546875 C-8.47664795 866.47976563 -9.25773926 865.90484375 -10.0625 865.3125 C-11.30858032 864.39404297 -11.30858032 864.39404297 -12.57983398 863.45703125 C-16.35839021 860.67340422 -20.13960626 857.89391898 -23.9375 855.13671875 C-33.08441978 848.48951016 -42.01675862 841.59035649 -50.92089844 834.62207031 C-53.85138841 832.33576508 -56.7995868 830.07299289 -59.75 827.8125 C-69.3555773 820.4273074 -78.89769782 813.01576151 -88.09887695 805.12963867 C-92.0439917 801.7642827 -96.08902872 798.55105178 -100.1875 795.375 C-105.18262952 791.49877403 -109.93062403 787.45176697 -114.5859375 783.16796875 C-117.09523872 780.91447008 -119.68241626 778.79838854 -122.3125 776.6875 C-127.1253403 772.79785615 -131.64860813 768.67388801 -136.15893555 764.44433594 C-139.54099912 761.29155631 -143.00531451 758.31984215 -146.625 755.4375 C-151.49844833 751.52881 -155.86787556 747.25971209 -160.19921875 742.7734375 C-163.01533441 739.9848153 -165.94166922 737.39690644 -168.93579102 734.80371094 C-172.23439273 731.92138457 -175.43390997 728.93789055 -178.625 725.9375 C-179.33575684 725.26992676 -180.04651367 724.60235352 -180.77880859 723.91455078 C-188.14716446 716.94320703 -195.29950361 709.75746045 -202.42431641 702.53881836 C-207.8917463 697.00510356 -207.8917463 697.00510356 -213.7109375 691.8515625 C-216.06031684 689.89385971 -218.054712 687.86456828 -220.03125 685.53125 C-223.42862532 681.54236737 -227.06921702 677.84871764 -230.78125 674.15625 C-231.40233643 673.53838623 -232.02342285 672.92052246 -232.66333008 672.28393555 C-234.6070361 670.35407957 -236.55308057 668.42661384 -238.5 666.5 C-253.49587976 651.66052127 -253.49587976 651.66052127 -258.67041016 645.55664062 C-260.48775869 643.42894796 -262.44229135 641.46020499 -264.4375 639.5 C-265.625 638.33333333 -266.8125 637.16666667 -268 636 C-264.25586867 626.70904957 -260.12085528 617.62492224 -255.9019165 608.54260254 C-254.71997487 605.99785522 -253.54099051 603.45175624 -252.36279297 600.90527344 C-250.72206207 597.35920944 -249.08057758 593.81349614 -247.43847656 590.26806641 C-237.39029832 568.56649475 -227.41104576 546.84008978 -217.75439453 524.9609375 C-215.71229212 520.343265 -213.65024488 515.73452866 -211.58984375 511.125 C-199.6608759 484.41882084 -187.99485747 457.60542014 -176.45947266 430.72705078 C-174.61802484 426.43697794 -172.77170778 422.14904487 -170.92127991 417.86283875 C-161.28024676 395.53086164 -151.9129995 373.08727477 -142.58488464 350.62301636 C-140.08587658 344.60653983 -137.57763876 338.5940503 -135.05859375 332.5859375 C-127.41519987 314.34538467 -119.94239279 296.04024299 -112.54760742 277.69750977 C-106.31654629 262.24240706 -100.04266964 246.80511538 -93.75 231.375 C-91.88655425 226.80475455 -90.02328466 222.23443732 -88.16015625 217.6640625 C-87.49051346 216.02139908 -87.49051346 216.02139908 -86.80734253 214.34555054 C-80.82945734 199.67844597 -74.88080131 184.99952074 -68.93829346 170.3180542 C-67.95621806 167.89183671 -66.9739768 165.46568642 -65.99169922 163.03955078 C-62.0701993 153.35367381 -58.14970546 143.66739003 -54.22984314 133.98085022 C-51.75790099 127.87244542 -49.28536842 121.76427988 -46.8125 115.65625 C-38.92802708 96.18090636 -31.04974663 76.70307318 -23.1769104 57.22302246 C-15.46538091 38.14295765 -7.73712939 19.06969667 0 0 Z " fill="#000000" transform="translate(1410,221)"/>
<path d="M0 0 C3.29733992 0.00461483 6.59430941 -0.00225274 9.89160156 -0.02050781 C61.82644842 -0.30498432 113.09656894 5.20164137 162.96728516 20.31567383 C163.70076172 20.53578125 164.43423828 20.75588867 165.18994141 20.98266602 C176.10290461 24.29819936 186.54756288 28.71326953 196.96728516 33.31567383 C197.70269531 33.63938965 198.43810547 33.96310547 199.19580078 34.29663086 C251.83618355 57.68046846 293.142767 99.79735925 314.2265625 153.5246582 C330.21028093 196.39502335 332.61062098 240.28647637 332.40569139 285.52029848 C332.38378104 291.36136814 332.38566978 297.20244456 332.38420105 303.04354858 C332.37763742 314.51144525 332.34944447 325.97919005 332.31390733 337.44702947 C332.28554095 346.81315267 332.2666181 356.17925249 332.25439453 365.54541016 C332.25350884 366.21665829 332.25262314 366.88790642 332.25171061 367.5794954 C332.24812124 370.31063998 332.2445707 373.0417846 332.24107543 375.7729293 C332.19748623 409.63285278 332.1054242 443.49259557 332.0031957 477.35238548 C331.97374244 487.10959243 331.94529575 496.86680201 331.917293 506.62401323 C331.68508923 587.49987984 331.41067024 668.37555338 330.96728516 779.31567383 C310.14887577 782.82279369 289.32983045 786.3261157 268.51002693 789.82495022 C258.84248199 791.44970252 249.17514693 793.07568459 239.50830078 794.70458984 C231.08010862 796.12477332 222.65152736 797.54262085 214.22247589 798.95769554 C209.76173889 799.70665001 205.30120186 800.45675184 200.8411293 801.20965385 C196.63756321 801.91921717 192.43348114 802.62564048 188.22899437 803.32972717 C186.69139517 803.58777068 185.15398287 803.84693085 183.61678123 804.10733223 C175.75476515 805.43849257 167.92280485 806.69201954 159.96728516 807.31567383 C157.77881226 774.87296598 157.77881226 774.87296598 163.80175781 767.90551758 C165.92143189 765.96856289 168.09743673 764.18352962 170.42480469 762.50170898 C172.79041383 760.68275849 174.5084133 758.46818045 176.34228516 756.12817383 C177.05642578 755.2387207 177.77056641 754.34926758 178.50634766 753.43286133 C179.31845703 752.40418945 180.13056641 751.37551758 180.96728516 750.31567383 C181.47485352 749.67533203 181.98242188 749.03499023 182.50537109 748.37524414 C208.9878033 714.90503648 231.93953634 679.13748736 253.28662109 642.2175293 C256.16772016 637.24298782 259.0679726 632.27961532 261.96728516 627.31567383 C258.3861901 630.85143856 254.92914353 634.4795162 251.52978516 638.19067383 C250.45838319 639.35363015 249.38676004 640.51638275 248.31494141 641.67895508 C246.66454147 643.47077664 245.01514053 645.26346132 243.36914062 647.05932617 C235.13771399 656.03241368 226.65622005 664.7154172 217.98291016 673.26318359 C217.17466797 674.06296631 216.36642578 674.86274902 215.53369141 675.68676758 C214.46550171 676.73755493 214.46550171 676.73755493 213.37573242 677.80957031 C211.50297285 679.75826539 209.74773281 681.72450053 207.99389648 683.77587891 C202.60295501 689.97778604 196.75971038 695.75003262 190.97509766 701.58129883 C190.04017298 702.52420902 190.04017298 702.52420902 189.08636093 703.48616791 C185.78262769 706.81649338 182.47531416 710.1432207 179.16552734 713.4675293 C176.46081919 716.18552084 173.76354541 718.91056554 171.07275391 721.64233398 C167.7887167 724.97634061 164.49196459 728.29728995 161.18636703 731.60991669 C159.94564735 732.85724439 158.70909489 734.1087349 157.47729874 735.36487579 C148.40470977 744.60637648 138.75061205 752.15772101 127.96728516 759.31567383 C127.33267994 759.74084541 126.69807472 760.166017 126.04423904 760.60407257 C92.02290596 783.38421934 54.22548232 797.43961811 13.96728516 804.31567383 C13.02530273 804.4800293 12.08332031 804.64438477 11.11279297 804.8137207 C-71.19530576 818.84795927 -163.32370996 802.19545289 -232.39208984 754.1105957 C-243.16739784 746.4650833 -253.32084639 738.28047547 -263.03271484 729.31567383 C-263.96083984 728.49067383 -264.88896484 727.66567383 -265.84521484 726.81567383 C-271.33233064 721.92498366 -276.33221838 716.95626959 -281.03271484 711.31567383 C-281.84095703 710.3952832 -282.64919922 709.47489258 -283.48193359 708.52661133 C-294.86351768 695.51170273 -304.45214177 681.3753198 -312.90966797 666.31079102 C-313.95055651 664.46162989 -315.01318303 662.62674707 -316.07958984 660.79223633 C-339.67697171 618.78889661 -350.05435887 567.10046856 -350.23583984 519.27270508 C-350.24438995 517.46173592 -350.24438995 517.46173592 -350.25311279 515.61418152 C-350.26249694 513.07043311 -350.2690703 510.52667291 -350.27294922 507.98291016 C-350.28257647 504.18279462 -350.31363258 500.38323935 -350.34521484 496.58325195 C-350.63232231 430.23365996 -329.73188707 371.57788614 -284.03271484 323.31567383 C-283.39333984 322.63375977 -282.75396484 321.9518457 -282.09521484 321.24926758 C-277.14859652 316.12428561 -271.60633606 311.73538128 -266.03271484 307.31567383 C-265.04271484 306.52032227 -264.05271484 305.7249707 -263.03271484 304.90551758 C-187.05274998 244.97632029 -76.62213851 226.39302869 20.96728516 236.31567383 C57.19421409 240.79435458 93.25637541 252.55896264 121.40478516 276.44067383 C121.98429932 276.93148438 122.56381348 277.42229492 123.16088867 277.92797852 C126.83910996 281.12494221 129.93705107 284.49814528 132.96728516 288.31567383 C133.48049395 264.33434805 133.18291084 241.16763975 117.96728516 221.31567383 C117.26603516 220.32567383 116.56478516 219.33567383 115.84228516 218.31567383 C91.61167003 190.55781726 45.85374892 186.10566323 11.77978516 183.62817383 C8.84298612 183.47799455 5.90692813 183.38943651 2.96728516 183.31567383 C1.9726123 183.28844238 0.97793945 183.26121094 -0.046875 183.2331543 C-74.74491248 181.4852532 -150.33685 201.21624533 -222.45068359 218.52270508 C-223.52537903 218.78055283 -224.60007446 219.03840057 -225.70733643 219.30406189 C-230.81477066 220.53130671 -235.92019617 221.76608104 -241.02246094 223.01464844 C-241.94102371 223.23775192 -242.85958649 223.46085541 -243.8059845 223.6907196 C-245.51124776 224.10497944 -247.21565171 224.52279984 -248.91899109 224.94490051 C-252.41957916 225.79227951 -255.40871299 226.31567383 -259.03271484 226.31567383 C-258.44619914 216.66708861 -256.68355061 207.27157522 -254.90576172 197.79052734 C-254.58168991 196.04180184 -254.25805803 194.29299476 -253.93482971 192.54411316 C-253.06129282 187.82478594 -252.18155827 183.10663363 -251.30059242 178.38868833 C-250.37803515 173.44246346 -249.46101943 168.49521124 -248.54333496 163.54808044 C-247.00325218 155.25001834 -245.45946289 146.95265308 -243.91308594 138.65576172 C-241.92789871 128.00441512 -239.94849658 117.35200227 -237.97103119 106.6992197 C-236.26945532 97.53271928 -234.56564546 88.36663434 -232.86126137 79.2006557 C-232.49571026 77.23457827 -232.13023584 75.26848658 -231.76483727 73.3023808 C-230.72427502 67.70342632 -229.68253583 62.10469376 -228.63877678 56.5063343 C-228.32270832 54.8100617 -228.00705716 53.11371128 -227.69185066 51.41727829 C-227.26207516 49.10471439 -226.83076776 46.79244144 -226.39904785 44.48023987 C-226.15791512 43.18558084 -225.91678238 41.8909218 -225.66834259 40.55703068 C-225.45858543 39.48738292 -225.24882828 38.41773516 -225.03271484 37.31567383 C-224.88721947 36.53169188 -224.74172409 35.74770994 -224.59181976 34.93997097 C-224.03271484 33.31567383 -224.03271484 33.31567383 -221.72070312 32.16235352 C-220.17745361 31.7045752 -220.17745361 31.7045752 -218.60302734 31.23754883 C-217.43288086 30.8853125 -216.26273438 30.53307617 -215.05712891 30.17016602 C-213.75768599 29.8007271 -212.45786902 29.43260178 -211.15771484 29.06567383 C-209.81099988 28.67419361 -208.46432087 28.28258967 -207.11767578 27.89086914 C-191.25743535 23.34127929 -175.1694774 19.73092255 -159.03271484 16.31567383 C-157.28547119 15.94466553 -157.28547119 15.94466553 -155.50292969 15.56616211 C-130.45249771 10.32722269 -105.09514172 6.83269026 -79.65771484 4.12817383 C-78.56058167 4.01008865 -78.56058167 4.01008865 -77.44128418 3.88961792 C-71.97655305 3.30754681 -66.50702276 2.79863854 -61.03271484 2.31567383 C-59.58100891 2.18326797 -59.58100891 2.18326797 -58.09997559 2.04818726 C-38.71941195 0.32103591 -19.44233837 -0.02943231 0 0 Z M-121.03271484 435.31567383 C-121.80228516 435.88286133 -122.57185547 436.45004883 -123.36474609 437.03442383 C-145.58928032 453.98107998 -161.20944382 476.37757623 -166.56005859 504.04223633 C-166.83151542 506.1469564 -166.97518092 508.19513769 -167.03271484 510.31567383 C-167.07138672 511.06333008 -167.11005859 511.81098633 -167.14990234 512.58129883 C-167.47296448 523.70899474 -165.37477021 534.74034369 -162.03271484 545.31567383 C-161.76845703 546.18450195 -161.50419922 547.05333008 -161.23193359 547.94848633 C-155.87812057 564.12785079 -145.50960198 577.02317035 -134.03271484 589.31567383 C-133.32244141 590.08008789 -132.61216797 590.84450195 -131.88037109 591.63208008 C-106.48344058 618.03937672 -65.05794546 636.53022035 -28.39990234 637.51879883 C15.39112035 638.05002975 62.28749823 625.58029541 95.96728516 596.31567383 C97.19511719 595.26959961 97.19511719 595.26959961 98.44775391 594.20239258 C116.602774 578.35545256 132.45273485 557.08312742 134.18701172 532.15771484 C134.68009798 517.44696286 134.65745873 503.35553981 129.96728516 489.31567383 C129.59345703 488.17614258 129.21962891 487.03661133 128.83447266 485.86254883 C124.69380731 474.29062315 118.97575791 463.65049742 110.96728516 454.31567383 C110.30083984 453.51645508 109.63439453 452.71723633 108.94775391 451.89379883 C82.74557612 421.48983037 40.86933549 406.978669 1.81738281 403.48339844 C-41.59309927 400.92874697 -85.680185 408.16887953 -121.03271484 435.31567383 Z " fill="#000000" transform="translate(2679.03271484375,905.684326171875)"/>
<path d="M0 0 C0.251892 35.2451631 0.44566352 70.49014376 0.56171862 105.73601785 C0.57547605 109.89904592 0.58971363 114.06207222 0.60424805 118.22509766 C0.60713346 119.05386546 0.61001888 119.88263326 0.61299173 120.73651524 C0.66082955 134.14807794 0.7475442 147.55912089 0.84868076 160.97037546 C0.95162378 174.73620238 1.01266236 188.50175749 1.03497344 202.26795352 C1.05005186 210.75973213 1.09763363 219.25004165 1.18708114 227.74136789 C1.24532246 233.56780374 1.26278056 239.39348252 1.24851515 245.22018819 C1.24148126 248.58089549 1.25813421 251.93698022 1.31126022 255.29758072 C1.63048769 276.53415788 1.63048769 276.53415788 -2.39000511 281.73411942 C-5.14505177 284.27790977 -7.76648596 286.12684254 -11 288 C-12.38045765 289.156832 -13.7409358 290.33882044 -15.0625 291.5625 C-15.70445313 292.12195313 -16.34640625 292.68140625 -17.0078125 293.2578125 C-31.40856927 305.85141548 -45.27636709 318.9022733 -58.18164062 333.02880859 C-60.13774473 335.14932209 -62.11985503 337.24284987 -64.109375 339.33203125 C-70.6669392 346.21967929 -77.0862363 353.08883909 -83.00390625 360.5390625 C-85.04311169 363.0531514 -87.18262552 365.43132701 -89.375 367.8125 C-93.42701096 372.25914159 -97.14027325 376.9063449 -100.8190918 381.66040039 C-104.79950509 386.79372224 -108.96521328 391.74646895 -113.19921875 396.671875 C-115.20394172 398.77311536 -115.20394172 398.77311536 -115 401 C-113.81857422 399.98292969 -113.81857422 399.98292969 -112.61328125 398.9453125 C-101.30665044 389.26218891 -89.50913596 380.33632508 -77.51245117 371.53295898 C-71.53893333 367.14701634 -65.6069197 362.70860055 -59.6875 358.25 C-52.47222024 352.82214966 -45.18912423 347.51116322 -37.82080078 342.29394531 C-28.02226286 335.33065073 -18.30774287 328.24810995 -8.625 321.125 C-7.83891357 320.5487085 -7.05282715 319.97241699 -6.24291992 319.37866211 C-2.14673225 316.36456493 1.9053046 313.30759952 5.90625 310.16796875 C47.70797366 277.55751345 102.13493919 266.81430857 154 263 C154.7822998 262.94070313 155.56459961 262.88140625 156.37060547 262.8203125 C240.67746524 256.75844542 327.1812035 271.63546735 445 340 C445.8971875 340.70125 446.794375 341.4025 447.71875 342.125 C450.17366031 344.05163847 452.59055027 346.01686681 455 348 C455.99128906 348.80566406 456.98257813 349.61132812 458.00390625 350.44140625 C481.91486752 370.09360292 507.93961787 397.21747802 513 429 C513.68960009 436.47314294 513.51745257 443.99360976 513.4699707 451.48999023 C513.47046004 453.75385163 513.47270474 456.01771319 513.47653961 458.28157139 C513.48192318 464.47954283 513.46230897 470.67721707 513.43840623 476.87513542 C513.41906434 482.90132462 513.41858541 488.92749853 513.41743227 494.95371149 C513.41435688 507.31675566 513.3921449 519.67969718 513.35888672 532.04269409 C513.32588243 544.31411504 513.30114748 556.58550627 513.28710938 568.85696411 C513.28622368 569.62248411 513.28533799 570.3880041 513.28442545 571.17672167 C513.28083892 574.28752746 513.27728837 577.39833328 513.27379028 580.50913917 C513.22867674 620.37267494 513.13084707 660.23603873 513.02157498 700.09944305 C513.00463443 706.28437334 512.98798126 712.46930434 512.97148895 718.65423584 C512.74734426 802.65983434 512.48100046 886.66525505 512 1012 C418.3944353 1028.72620366 418.3944353 1028.72620366 380.75732422 1035.39477539 C375.62546187 1036.30414579 370.4939954 1037.21573415 365.36257744 1038.1276083 C361.28471791 1038.85187782 357.20659444 1039.57465199 353.12839127 1040.29698372 C351.22642068 1040.63412805 349.3245499 1040.97183598 347.42278671 1041.31014824 C344.85098578 1041.76752843 342.27881941 1042.22279311 339.70654297 1042.67749023 C338.9480304 1042.81288712 338.18951782 1042.948284 337.40802002 1043.08778381 C332.22834887 1044 332.22834887 1044 330 1044 C329.10842314 1031.37096081 328.82647362 1018.79550858 328.77258301 1006.13764954 C328.76044495 1004.07783108 328.74790728 1002.01801495 328.73500872 999.95820111 C328.70096739 994.34235718 328.67248942 988.72649713 328.64496446 983.110618 C328.61418485 977.03596605 328.57813476 970.96134506 328.54270935 964.88671875 C328.4820564 954.36995666 328.42457959 943.85318066 328.36924744 933.33638954 C328.28902322 918.09843508 328.20289941 902.86051791 328.11525899 887.62260451 C328.07433337 880.50541663 328.03369761 873.3882271 327.99314117 866.2710371 C327.98705178 865.20248857 327.98705178 865.20248857 327.98083937 864.11235319 C327.88441484 847.17997538 327.79085635 830.24758191 327.69775391 813.31518555 C327.69368302 812.5750012 327.68961214 811.83481685 327.6854179 811.07220267 C327.64005329 802.82344463 327.59474871 794.57468627 327.54947662 786.32592773 C327.46724902 771.34383037 327.38486571 756.36173388 327.30224609 741.37963867 C327.29817852 740.6418445 327.29411094 739.90405034 327.2899201 739.14389877 C327.19684953 722.26501642 327.10300081 705.38613884 327.00685883 688.50727367 C327.00280608 687.79570256 326.99875334 687.08413145 326.99457779 686.35099757 C326.95407244 679.24203061 326.91343984 672.13306439 326.87261468 665.02409925 C326.78530539 649.81541215 326.70027091 634.60671731 326.6199988 619.39799134 C326.56138704 608.29939459 326.49982436 597.20081673 326.43547881 586.10225157 C326.400819 580.10566167 326.36747765 574.10907253 326.33787346 568.11245537 C326.20533404 538.28758409 326.20533404 538.28758409 325.63684082 508.46867371 C325.61211181 507.29742016 325.5873828 506.12616662 325.56190443 504.91942054 C325.26856499 495.9505449 323.62008462 488.82791629 319 481 C318.11441406 479.46859375 318.11441406 479.46859375 317.2109375 477.90625 C299.2372559 449.20753206 270.45020484 431.19318054 238 423 C180.16393335 409.95633779 114.52313559 417.38146013 63.74511719 449.42285156 C35.49153626 467.98949046 9.21375914 493.76521088 2 528 C0.86578518 535.17345929 0.83454179 542.2568225 0.81054688 549.50976562 C0.80255199 550.88630155 0.79413886 552.26283509 0.78534698 553.63936615 C0.7624022 557.4246738 0.74545275 561.20998808 0.72950745 564.99533081 C0.71110496 569.11962706 0.68721693 573.24389225 0.6640625 577.36816406 C0.6243048 584.58893467 0.58819807 591.80971652 0.55444336 599.03051758 C0.50482875 609.64333029 0.44925754 620.2561061 0.39276218 630.86888409 C0.16490853 673.82964049 -0.02378173 716.79057166 -0.20298338 759.75155497 C-0.23948467 768.50116031 -0.27643343 777.25076367 -0.31359863 786.00036621 C-0.33473744 790.98657218 -0.3558478 795.97277827 -0.37695312 800.95898438 C-0.38217011 802.1894987 -0.3873871 803.42001303 -0.39276218 804.68781567 C-0.44944251 818.07873245 -0.50442225 831.46965225 -0.55444336 844.8605957 C-0.60589124 858.62582804 -0.65988614 872.39104721 -0.71875 886.15625 C-0.7234046 887.24596163 -0.7280592 888.33567326 -0.73285484 889.45840645 C-0.9040463 928.97650045 -1.32437502 968.48733551 -2 1008 C-25.8253136 1012.30478278 -49.65098495 1016.60758045 -73.47708702 1020.90799713 C-84.53925805 1022.90467669 -95.60130984 1024.90201249 -106.66308594 1026.90087891 C-116.30141961 1028.64252713 -125.93997204 1030.38295865 -135.57879221 1032.12191248 C-140.68525305 1033.04322098 -145.79160015 1033.96514989 -150.897686 1034.88853455 C-155.69896041 1035.75677728 -160.50052453 1036.62339885 -165.30232048 1037.48875237 C-167.06895398 1037.80742523 -168.83547876 1038.12670142 -170.60188866 1038.4466114 C-173.00500745 1038.88174296 -175.4085003 1039.31474467 -177.81210327 1039.74719238 C-178.51832113 1039.87559368 -179.22453898 1040.00399497 -179.95215738 1040.13628721 C-184.77175758 1041 -184.77175758 1041 -187 1041 C-187.1804539 985.84242741 -187.34162872 930.68480319 -187.49095565 875.52713782 C-187.49996103 872.20189141 -187.50899316 868.87664508 -187.51802588 865.55139875 C-187.76942539 772.83894668 -187.97848895 680.1263394 -188.06282836 313.32680715 C-188.06238934 309.96519227 -188.06196287 306.60357739 -188.06153599 303.24196251 C-188.05094996 220.04449273 -188.0322662 136.84702628 -188 43 C-187.06418142 42.77774504 -186.12836284 42.55549008 -185.16418612 42.32650012 C-176.19538908 40.19642891 -167.22659318 38.06635291 -158.25779829 35.93627263 C-152.75379475 34.62907719 -147.24979037 33.3218853 -141.74578531 32.01469626 C-138.1873717 31.16957967 -134.6289592 30.32445841 -131.07054672 29.47933705 C-128.42164745 28.8502271 -125.77274644 28.22112451 -123.12384534 27.5920223 C-115.13847425 25.69551626 -107.15313258 23.79888666 -99.1679039 21.90178108 C-97.80505334 21.57801242 -96.44220264 21.25424436 -95.07935178 20.93047696 C-92.63323661 20.34934683 -90.18713214 19.76817159 -87.74104178 19.18693703 C-78.06740305 16.88877574 -68.39173057 14.59925439 -58.71533203 12.31274414 C-54.35515821 11.28190351 -49.99589779 10.24729828 -45.63720703 9.21020508 C-40.15176126 7.90512385 -34.66482557 6.60649706 -29.17674637 5.31253624 C-27.14365704 4.83202063 -25.11110475 4.34922606 -23.07914352 3.86396217 C-20.31249036 3.20362112 -17.54400277 2.55160101 -14.77490234 1.90161133 C-13.96838226 1.70704346 -13.16186218 1.51247559 -12.3309021 1.31201172 C-11.58002319 1.13753006 -10.82914429 0.9630484 -10.05551147 0.78327942 C-9.09139123 0.55481937 -9.09139123 0.55481937 -8.10779381 0.32174397 C-5.39101454 -0.09295852 -2.74348785 -0.04890073 0 0 Z " fill="#000000" transform="translate(4487,681)"/>
<path d="M0 0 C1.14351929 0.00060425 2.28703857 0.0012085 3.46520996 0.00183105 C21.26669288 0.02729635 38.90350459 0.3627909 56.625 2.1875 C58.53055664 2.38085938 58.53055664 2.38085938 60.47460938 2.578125 C80.08925369 4.61674973 99.37966973 7.83760054 118.625 12.1875 C120.29127441 12.56382568 120.29127441 12.56382568 121.99121094 12.94775391 C149.23511402 19.25008495 176.26712713 28.37901488 201.625 40.1875 C202.60049805 40.63561035 203.57599609 41.0837207 204.58105469 41.54541016 C234.67174748 55.41717259 262.79888375 72.3651075 288.625 93.1875 C289.19186523 93.64398926 289.75873047 94.10047852 290.34277344 94.57080078 C299.86517423 102.30317064 308.74702495 110.73187689 317.625 119.1875 C313.36777844 128.06647944 305.70330986 135.25674361 299.09375 142.4375 C296.68121896 145.12487634 294.3924379 147.87715444 292.125 150.6875 C288.28780969 155.44345419 284.23114899 159.94254801 280.09375 164.4375 C277.68121896 167.12487634 275.3924379 169.87715444 273.125 172.6875 C269.28780969 177.44345419 265.23114899 181.94254801 261.09375 186.4375 C258.68121896 189.12487634 256.3924379 191.87715444 254.125 194.6875 C250.28780969 199.44345419 246.23114899 203.94254801 242.09375 208.4375 C239.68121896 211.12487634 237.3924379 213.87715444 235.125 216.6875 C231.28780969 221.44345419 227.23114899 225.94254801 223.09375 230.4375 C220.68121896 233.12487634 218.3924379 235.87715444 216.125 238.6875 C212.2124288 243.5365909 208.0843056 248.14159609 203.8671875 252.7265625 C201.35918949 255.47924324 198.96976309 258.29562552 196.625 261.1875 C193.06321015 259.66334736 190.72178156 257.54563741 187.9375 254.875 C163.37614088 231.99540348 133.27969132 215.00164499 101.625 204.1875 C100.45541748 203.77661133 100.45541748 203.77661133 99.26220703 203.35742188 C80.68147326 196.86804294 61.24232786 192.77145333 41.625 191.1875 C40.85172363 191.11515137 40.07844727 191.04280273 39.28173828 190.96826172 C16.32723249 188.89967385 -7.85779029 191.401826 -30.375 196.1875 C-31.29200684 196.38182617 -32.20901367 196.57615234 -33.15380859 196.77636719 C-55.35458866 201.58839436 -76.9396057 208.18174736 -97.375 218.1875 C-98.35388184 218.66654785 -98.35388184 218.66654785 -99.35253906 219.15527344 C-112.56105189 225.71623417 -125.01819852 233.77011946 -136.375 243.1875 C-136.91012207 243.62852051 -137.44524414 244.06954102 -137.99658203 244.52392578 C-145.01545266 250.33178734 -151.63430082 256.08123035 -157.375 263.1875 C-158.12910156 264.0434375 -158.88320312 264.899375 -159.66015625 265.78125 C-166.54674959 273.70030015 -172.07273087 282.1457358 -177.375 291.1875 C-177.72804199 291.77305664 -178.08108398 292.35861328 -178.44482422 292.96191406 C-195.90919266 322.10542214 -201.82303758 356.50747535 -201.75 390 C-201.74945618 390.9422644 -201.74891235 391.88452881 -201.74835205 392.85534668 C-201.70668925 408.61455081 -200.70473602 423.73608609 -197.375 439.1875 C-197.06949219 440.64494629 -197.06949219 440.64494629 -196.7578125 442.13183594 C-190.36258744 471.67027516 -177.42191725 499.96799525 -159.375 524.1875 C-158.93188477 524.7861084 -158.48876953 525.3847168 -158.03222656 526.00146484 C-149.04727012 538.04156901 -139.09225194 549.72434679 -127.375 559.1875 C-126.30050952 560.08561251 -125.22631995 560.98408507 -124.15234375 561.8828125 C-78.20325224 599.9239539 -20.50058022 616.25925268 38.62109375 611.7265625 C92.72191462 606.61033943 140.46195811 582.09536673 179.625 545.1875 C180.3571875 544.49785156 181.089375 543.80820313 181.84375 543.09765625 C187.24940179 537.85288696 191.94521513 532.08056242 196.625 526.1875 C200.55975527 526.73991157 202.33666668 528.53977944 205.08300781 531.32080078 C205.95781799 532.19906525 206.83262817 533.07732971 207.73394775 533.98220825 C208.682083 534.94900165 209.63014008 535.9158717 210.578125 536.8828125 C211.56142051 537.87425312 212.54546189 538.8649545 213.5302124 539.85494995 C216.12453401 542.46639298 218.71017607 545.08625546 221.29364014 547.70843506 C225.41162949 551.88555028 229.54210381 556.05030485 233.67354584 560.21410751 C235.10530789 561.65965534 236.53307369 563.10905475 237.96026611 564.55911255 C242.45107092 569.09930102 246.99205651 573.47652746 251.8414917 577.63131714 C254.55182595 579.99619299 257.07329248 582.5297598 259.59375 585.09375 C260.11835815 585.62214478 260.64296631 586.15053955 261.18347168 586.69494629 C263.38616115 588.91369584 265.58270837 591.13848773 267.77978516 593.36279297 C273.33030866 598.97588541 278.86375185 604.53743524 284.87695312 609.66210938 C287.7741429 612.19027162 290.43901622 614.93893582 293.125 617.6875 C297.08667253 621.69387645 301.07314488 625.57450527 305.37109375 629.22265625 C308.6906517 632.11648233 311.90255035 635.1238603 315.125 638.125 C315.76171631 638.71796875 316.39843262 639.3109375 317.05444336 639.921875 C318.57879555 641.3428566 320.10201702 642.76505101 321.625 644.1875 C320.26233356 648.22555866 318.4840849 650.73118118 315.5625 653.8125 C312.36447555 657.20136497 309.40860545 660.68813318 306.49609375 664.328125 C301.59236429 670.35451707 296.26310861 675.84552619 290.75 681.3125 C289.83347656 682.23675781 288.91695312 683.16101562 287.97265625 684.11328125 C281.83206471 690.23659968 275.40385167 695.78705526 268.625 701.1875 C267.48594461 702.14019756 266.34992365 703.09655113 265.21875 704.05859375 C215.75489959 745.44541555 153.72151679 769.60881812 90.625 780.1875 C89.71492188 780.34057617 88.80484375 780.49365234 87.8671875 780.65136719 C64.11279497 784.54911965 40.29020338 785.572341 16.25 785.5 C14.35145264 785.49726578 14.35145264 785.49726578 12.41455078 785.49447632 C-8.00429891 785.44516396 -28.11510782 784.74308472 -48.375 782.1875 C-49.067146 782.10264343 -49.75929199 782.01778687 -50.47241211 781.93035889 C-105.38702061 775.19351205 -159.31040382 760.03732856 -208.375 734.1875 C-209.47593994 733.61708984 -209.47593994 733.61708984 -210.59912109 733.03515625 C-235.16932521 720.25231995 -257.480663 704.28847644 -278.375 686.1875 C-279.1690625 685.506875 -279.963125 684.82625 -280.78125 684.125 C-293.27647534 673.17028189 -305.19368984 661.3280121 -315.375 648.1875 C-316.81084768 646.47777767 -318.24841569 644.76949894 -319.6875 643.0625 C-365.42389163 586.98570679 -389.38330586 514.52845923 -396.375 443.1875 C-396.47796387 442.18976563 -396.58092773 441.19203125 -396.68701172 440.1640625 C-406.32093633 343.48998805 -390.82163914 234.63132302 -337.375 152.1875 C-336.67890625 151.09566406 -335.9828125 150.00382812 -335.265625 148.87890625 C-324.78505444 132.75978873 -312.22715889 118.27080548 -299.125 104.25 C-298.15119385 103.20344238 -298.15119385 103.20344238 -297.15771484 102.13574219 C-292.79823131 97.51617268 -288.22086394 93.29026811 -283.375 89.1875 C-282.74223145 88.64327393 -282.10946289 88.09904785 -281.45751953 87.53833008 C-260.77871712 69.82607354 -237.83612658 54.74276459 -213.21923828 43.06689453 C-211.45922382 42.22766073 -209.71164619 41.36249176 -207.96484375 40.49609375 C-143.92540279 9.37884566 -70.44881806 -0.06915033 0 0 Z " fill="#000000" transform="translate(3919.375,928.8125)"/>
<path d="M0 0 C0.33 36.63 0.66 73.26 1 111 C11.92710825 100.18854692 11.92710825 100.18854692 21.70703125 88.80078125 C24.91886013 84.87764444 28.36643795 81.19265205 31.84033203 77.50170898 C34.03169403 75.16638087 36.14120849 72.8226504 38.13671875 70.31640625 C41.0237034 66.72734566 44.49244313 63.96527012 48 61 C48.86625 60.23429688 49.7325 59.46859375 50.625 58.6796875 C58.53891352 51.81952877 66.96407348 46.27539958 76 41 C76.59619141 40.64695801 77.19238281 40.29391602 77.80664062 39.93017578 C95.52658375 29.54382304 115.19681404 23.10013323 135 18 C136.23121582 17.67588135 136.23121582 17.67588135 137.48730469 17.34521484 C165.89423525 9.92666586 194.81426588 6.48335626 224 4 C224.71847107 3.93834656 225.43694214 3.87669312 226.17718506 3.81317139 C253.08482069 1.53504763 280.0162055 1.78365035 307 2 C304.95313001 8.49760292 302.51725856 14.74534851 299.82421875 21 C299.22212334 22.41051132 299.22212334 22.41051132 298.60786438 23.84951782 C297.30441779 26.90111982 295.99605161 29.95058402 294.6875 33 C293.31475481 36.20857996 291.94304038 39.41759942 290.57131958 42.62661743 C289.65744279 44.76415941 288.74311661 46.90150931 287.82833862 49.03866577 C285.29083812 54.96887208 282.76695116 60.90436832 280.26953125 66.8515625 C266.5407825 99.52318834 252.27175542 132.01758671 237 164 C236.48550293 165.07958984 235.97100586 166.15917969 235.44091797 167.27148438 C233.9331868 170.41731974 232.40839548 173.55410624 230.875 176.6875 C230.20005493 178.08923462 230.20005493 178.08923462 229.51147461 179.51928711 C229.09260986 180.36241455 228.67374512 181.20554199 228.2421875 182.07421875 C227.8797998 182.81244873 227.51741211 183.55067871 227.14404297 184.3112793 C226 186 226 186 223 187 C221.49743502 187.11355369 219.990863 187.17792439 218.484375 187.2109375 C217.57486084 187.23704102 216.66534668 187.26314453 215.72827148 187.29003906 C214.74544189 187.31807617 213.7626123 187.34611328 212.75 187.375 C193.07660713 188.11219082 174.04831618 191.05670206 155 196 C154.16936035 196.21495117 153.3387207 196.42990234 152.48291016 196.65136719 C117.32604644 205.97542738 80.40439814 223.75956093 55.33984375 250.78515625 C54 252 54 252 52 252 C51.7525 252.57105469 51.505 253.14210938 51.25 253.73046875 C49.80434303 256.35523969 48.08325584 258.15856226 46 260.3125 C33.71061597 273.76759731 24.38510278 290.29332907 20 308 C19.83229398 308.62094351 19.66458797 309.24188701 19.49179995 309.88164699 C17.4409375 318.47968856 17.71057554 327.16627254 17.7215271 335.9446106 C17.71651969 337.77228062 17.71064259 339.59994842 17.70397437 341.42761314 C17.68821433 346.43312512 17.68474589 351.4385809 17.68332577 356.44411469 C17.67962474 361.84823191 17.66446574 367.25231856 17.65071106 372.65641785 C17.6284565 382.01384281 17.61343236 391.37125686 17.60334396 400.72870255 C17.58874742 414.2579313 17.56320782 427.78712207 17.53501268 441.31632851 C17.48956244 463.26751623 17.45294031 485.21870943 17.421875 507.16992188 C17.39168222 528.49122167 17.35732859 549.81250543 17.31738281 571.13378906 C17.31492126 572.44842688 17.31245972 573.76306469 17.30992357 575.11754002 C17.29754883 581.71280923 17.28509232 588.30807828 17.27259517 594.90334725 C17.16905384 649.6022128 17.07984184 704.30109508 17 759 C2.89884307 761.96439803 -11.20980777 764.86790656 -25.35839844 767.59692383 C-27.04018238 767.92264439 -28.72193908 768.24850569 -30.40367126 768.57449341 C-34.87932427 769.4415548 -39.35539723 770.30642734 -43.83160305 771.17062974 C-46.63595135 771.71216327 -49.44020289 772.25419505 -52.24442291 772.79639244 C-62.04590315 774.69149721 -71.84773268 776.58478288 -81.64990234 778.47631836 C-90.7668383 780.23567508 -99.88296873 781.99916345 -108.99875045 783.76448995 C-116.86368959 785.28739416 -124.72917655 786.80744565 -132.59509873 788.32526416 C-137.27778527 789.22889234 -141.96024086 790.13367777 -146.64214325 791.04136086 C-151.02478823 791.89092797 -155.4081022 792.73695212 -159.79196358 793.58021927 C-161.39988767 793.89014395 -163.00756655 794.20134395 -164.6149807 794.51390266 C-166.80556102 794.93965287 -168.99697342 795.36082398 -171.18865967 795.78083801 C-172.41481365 796.01769727 -173.64096764 796.25455652 -174.9042778 796.49859333 C-178 797 -178 797 -182 797 C-182.03077753 733.1891067 -182.05077488 669.378212 -182.06185675 605.56731224 C-182.06249785 601.887338 -182.06315678 598.20736376 -182.06381607 594.52738953 C-182.08423486 478.69137653 -182.06111913 362.85583851 -181.50902146 173.72869074 C-181.49996321 170.98887203 -181.49092922 168.24905323 -181.48189783 165.50923443 C-181.33394438 120.6727754 -181.17481723 75.83636264 -181 31 C-155.49313044 26.44661257 -129.98214707 21.92296963 -104.44463754 17.54447937 C-101.56197486 17.05006565 -98.6794615 16.55478415 -95.79694241 16.05953407 C-89.01953526 14.89511143 -82.24190629 13.73198724 -75.46411133 12.56982422 C-68.50386973 11.37635518 -61.54401993 10.18061991 -54.58434135 8.98387241 C-48.52591076 7.94217142 -42.46726102 6.9017524 -36.40842789 5.86239529 C-32.82291968 5.24731362 -29.23749338 4.63176472 -25.65227699 4.01498413 C-21.70641289 3.33623149 -17.76009412 2.66016013 -13.8137207 1.984375 C-12.63860931 1.78187637 -11.46349792 1.57937775 -10.2527771 1.3707428 C-9.18756332 1.18877853 -8.12234955 1.00681427 -7.02485657 0.81933594 C-6.09698491 0.66011658 -5.16911325 0.50089722 -4.21312428 0.33685303 C-2 0 -2 0 0 0 Z " fill="#000000" transform="translate(3303,917)"/>
<path d="M0 0 C0.00173625 0.54609869 0.0034725 1.09219738 0.00526136 1.65484452 C0.06195978 19.48204488 0.11905549 37.30924395 0.1763505 55.13644239 C0.18358675 57.38844511 0.19081801 59.64044784 0.19804835 61.89245057 C0.31752101 99.09552807 0.4398504 136.29859379 0.56966668 173.50163676 C0.57862329 176.06903102 0.58756915 178.63642532 0.59651136 181.20381963 C0.67308791 203.19020714 0.67308791 203.19020714 0.75013201 225.17659301 C0.88921956 264.75000444 1.01957427 304.32339602 1.11890507 343.89692879 C1.1260317 346.73209767 1.13317485 349.56726651 1.14033508 352.4024353 C1.14296236 353.44343966 1.14296236 353.44343966 1.14564271 354.5054744 C1.19108672 372.43681005 1.24744661 390.36811018 1.30649471 408.29940605 C1.35059532 421.82039746 1.3858672 435.3413534 1.40964419 448.86239606 C1.42653865 458.0231077 1.45405988 467.1837481 1.4900741 476.3444044 C1.51022762 481.5543083 1.52576992 486.76410936 1.52805901 491.97405434 C1.53019891 496.70472331 1.54608629 501.43514681 1.57254136 506.16574049 C1.57965015 507.85682873 1.58191612 509.54794689 1.57847393 511.23904657 C1.55279499 526.18889408 3.22623832 540.80598576 7.75 555.125 C8.00458984 555.95064453 8.25917969 556.77628906 8.52148438 557.62695312 C11.08815041 565.6998325 14.36848467 573.35644609 18 581 C18.49371094 582.06734375 18.98742188 583.1346875 19.49609375 584.234375 C36.34586107 619.48646273 66.82893657 645.0757571 103.18847656 658.36547852 C123.13005013 665.29248112 143.99495915 668.04146646 165 669 C165.75087891 669.03464355 166.50175781 669.06928711 167.27539062 669.10498047 C236.40773694 671.75253227 307.88798815 649.9352475 360 604 C360.84304688 603.27941406 361.68609375 602.55882812 362.5546875 601.81640625 C366.81081273 598.14066173 370.65037908 594.3325979 374.2734375 590.03125 C375.41299459 588.6905946 376.58494784 587.3767368 377.7890625 586.09375 C394.74331624 567.95339621 407.36257122 545.14699902 416 522 C416.30776367 521.18096191 416.61552734 520.36192383 416.93261719 519.51806641 C428.35423728 488.60092237 431.18272635 456.69969046 431.12025452 424.00448608 C431.1206919 422.26890918 431.12156987 420.53333233 431.12284368 418.79775584 C431.1250558 414.08395922 431.12111296 409.37018577 431.11606562 404.6563921 C431.11171357 399.55236633 431.11321089 394.44834168 431.1139679 389.34431458 C431.11449014 380.519593 431.11137478 371.69487886 431.10573006 362.87015915 C431.09757427 350.11137621 431.09499567 337.35259685 431.09374207 324.59381159 C431.09155794 303.88936194 431.08491522 283.18491625 431.07543945 262.48046875 C431.06624878 242.37792989 431.05917605 222.2753921 431.05493164 202.17285156 C431.05466892 200.93200343 431.05440619 199.6911553 431.05413551 198.4127057 C431.05283039 192.18721942 431.0515667 185.96173312 431.05032361 179.73624682 C431.0399709 128.15749515 431.02237002 76.57874777 431 25 C435.01629473 23.92639227 439.03277559 22.85348421 443.04941273 21.78115845 C444.40896962 21.41809901 445.76847997 21.05486522 447.12793827 20.69143677 C459.695216 17.33200975 472.28262978 14.05645554 484.88793945 10.84228516 C488.28368994 9.97544541 491.67796143 9.10295259 495.07226562 8.23046875 C497.24991337 7.67413997 499.42764429 7.11813662 501.60546875 6.5625 C502.611436 6.3032373 503.61740326 6.04397461 504.65385437 5.77685547 C505.57785538 5.54240723 506.50185638 5.30795898 507.45385742 5.06640625 C508.26271896 4.85959229 509.07158051 4.65277832 509.904953 4.43969727 C512 4 512 4 515 4 C515.79737704 103.50106045 516.3182798 203.00297105 516.94635038 343.07033615 C517.02873373 361.64968499 517.1137399 380.22902044 517.20043945 398.80834961 C518.15145449 602.76533381 518.15145449 602.76533381 518 724 C488.8789525 730.50982958 488.8789525 730.50982958 476.69140625 732.9921875 C475.5405101 733.22785431 474.38961395 733.46352112 473.20384216 733.70632935 C470.8399974 734.18953525 468.47591115 734.67156146 466.11157227 735.15234375 C462.48292427 735.89120308 458.8557216 736.63690977 455.22851562 737.3828125 C452.90372906 737.85717888 450.57886243 738.33115311 448.25390625 738.8046875 C446.64014854 739.13737137 446.64014854 739.13737137 444.99378967 739.47677612 C444.00011887 739.67763824 443.00644806 739.87850037 441.98266602 740.08544922 C441.11368179 740.26276581 440.24469757 740.4400824 439.34938049 740.62277222 C437 741 437 741 433 741 C432.98969254 739.75640717 432.97938507 738.51281433 432.96876526 737.23153687 C432.86961322 725.32326287 432.76678924 713.41502506 432.66066074 701.50681114 C432.606252 695.38948249 432.55299487 689.27214901 432.50268555 683.15478516 C432.26553569 654.42693398 431.91190496 625.71518361 431 597 C430.66400284 597.72751968 430.32800568 598.45503937 429.98182678 599.2046051 C418.09156758 624.90683379 404.02709461 647.12506952 385.38574219 668.41455078 C384.14785651 669.83083507 382.92082956 671.25659338 381.6953125 672.68359375 C366.42530943 690.16299287 347.72943144 703.95382251 328 716 C327.36304199 716.3913916 326.72608398 716.7827832 326.06982422 717.18603516 C259.67923274 757.52222936 171.94267747 763.20490252 97 749 C95.61917236 748.73944824 95.61917236 748.73944824 94.21044922 748.47363281 C45.0509771 738.90526641 -4.98951132 714.61897742 -37 675 C-37.90980019 673.91376418 -38.81999506 672.82785887 -39.73046875 671.7421875 C-46.53115129 663.53865885 -52.4543212 655.05553112 -57.87695312 645.88623047 C-58.91016933 644.15087646 -59.97701286 642.43566071 -61.046875 640.72265625 C-78.08180276 612.61502545 -87.92069792 578.83968508 -88.29759216 546.0544281 C-88.31681713 544.64051986 -88.33636124 543.22661594 -88.35619605 541.81271613 C-88.40895864 537.94665165 -88.45541945 534.08053509 -88.50026305 530.21437152 C-88.52935361 527.73781307 -88.56002688 525.2612788 -88.59114921 522.7847451 C-89.09408953 482.58148287 -89.30159701 442.37640125 -89.49062541 402.17065916 C-89.54102443 391.46985926 -89.59488248 380.76907737 -89.64874845 370.06829446 C-89.74505169 350.91427553 -89.83837832 331.76024334 -89.92993164 312.60620117 C-90.01776357 294.2311891 -90.10786392 275.85618997 -90.20043945 257.48120117 C-90.31895666 233.95609683 -90.43550198 210.43098351 -90.55043279 186.90586137 C-90.58145672 180.56465127 -90.61288817 174.22344336 -90.64467499 167.88223705 C-90.89511662 117.92109276 -91.06875898 67.96182517 -91 18 C-89.08807607 17.51864117 -87.17592159 17.03819802 -85.26367092 16.55813885 C-84.19886484 16.29049337 -83.13405875 16.02284789 -82.03698581 15.74709195 C-78.34514363 14.83890675 -74.64930918 14.04284434 -70.92407227 13.2824707 C-69.85084465 13.06235825 -69.85084465 13.06235825 -68.75593567 12.83779907 C-66.44331781 12.36433959 -64.12992702 11.89480728 -61.81640625 11.42578125 C-60.18641775 11.09385965 -58.55644883 10.76184187 -56.92649841 10.42973328 C-53.535771 9.73959557 -50.144616 9.05160645 -46.75317383 8.36499023 C-42.41240839 7.48584787 -38.07310047 6.5997223 -33.73411655 5.71183491 C-30.37962613 5.02647485 -27.02424429 4.34556303 -23.66859245 3.66591454 C-22.06752996 3.34093068 -20.46678254 3.01439045 -18.86636543 2.68624306 C-16.63521069 2.22930035 -14.40288774 1.77855995 -12.17016602 1.3293457 C-10.90286148 1.07192093 -9.63555695 0.81449615 -8.32984924 0.54927063 C-5.45131588 0.07444618 -2.90101765 -0.04345343 0 0 Z " fill="#000000" transform="translate(6425,979)"/>
<path d="M0 0 C0.92336151 0.00060425 1.84672302 0.0012085 2.79806519 0.00183105 C49.85281778 0.08514527 96.08256303 7.47522978 138.6875 28.1875 C139.69586914 28.67621582 139.69586914 28.67621582 140.72460938 29.17480469 C155.83385475 36.60621233 170.02728623 46.09454742 182.6875 57.1875 C183.48929688 57.87972656 184.29109375 58.57195313 185.1171875 59.28515625 C187.68321756 61.5437546 190.19257389 63.85057363 192.6875 66.1875 C193.17976074 66.64576172 193.67202148 67.10402344 194.17919922 67.57617188 C207.50771107 80.0864485 218.27051537 94.56218431 227.6875 110.1875 C228.04763184 110.77225098 228.40776367 111.35700195 228.77880859 111.95947266 C250.39428131 147.27395365 258.29732686 186.04405421 258.26171875 226.953125 C258.27178285 229.77947223 258.28785912 232.60577829 258.30368042 235.43209839 C258.33484322 241.53809246 258.35206325 247.64399395 258.35964966 253.75006104 C258.37109987 262.84221153 258.40486251 271.93418515 258.4438051 281.02625489 C258.49347692 292.65789435 258.53877869 304.28953826 258.57295227 315.92123413 C258.65017805 342.06878009 258.78068469 368.21564824 258.94243193 394.36280227 C259.58637756 498.90756361 259.81090243 603.4485655 259.6875 737.1875 C255.54397897 738.59355099 251.46992362 739.76025031 247.19482422 740.69970703 C245.29287796 741.11991623 245.29287796 741.11991623 243.35250854 741.5486145 C241.98244388 741.84770789 240.6123358 742.14660248 239.2421875 742.4453125 C237.82541333 742.75617212 236.40867603 743.06719979 234.99197388 743.37838745 C232.03206966 744.02772043 229.07164293 744.67460274 226.11083984 745.31982422 C222.31903334 746.14640827 218.52874919 746.9797523 214.73884392 747.81500435 C211.81755418 748.45792823 208.89542126 749.09694964 205.97302628 749.73482895 C204.57492265 750.04055213 203.17709955 750.34756117 201.77956772 750.6558876 C199.82772016 751.08596327 197.87457878 751.51015428 195.92138672 751.93408203 C194.81141327 752.17675812 193.70143982 752.4194342 192.55783081 752.66946411 C189.6875 753.1875 189.6875 753.1875 185.6875 753.1875 C184.79443124 697.62399218 184.5409143 642.0699665 184.5201601 586.4998678 C184.51420938 570.5804652 184.497691 554.6610896 184.47749329 538.74169922 C184.47433022 536.20410984 184.47117491 533.66652045 184.46802729 531.12893105 C184.46326503 527.29180562 184.45850151 523.45468019 184.45371684 519.61755478 C184.43598175 505.34204318 184.4196447 491.06653025 184.40454102 476.79101562 C184.40316514 475.49384825 184.40178927 474.19668088 184.40037171 472.86020541 C184.3782564 451.65868915 184.36763015 430.45717893 184.36017027 409.25565314 C184.35209781 387.32064239 184.32883849 365.38568247 184.2922166 343.45070076 C184.27029154 329.9985622 184.26049587 316.54652827 184.26671693 303.09437275 C184.26989287 293.9202332 184.25855279 284.7461837 184.23582252 275.57207203 C184.22318585 270.2917555 184.21694936 265.01163977 184.22823906 259.73131561 C184.23845236 254.89283159 184.23006694 250.05473664 184.2073761 245.21629834 C184.20240913 243.47480329 184.20405699 241.73327286 184.21330877 239.9917953 C184.26691472 229.03445944 183.06976502 219.65014495 179.6875 209.1875 C179.33681057 208.0418542 179.33681057 208.0418542 178.97903651 206.87306404 C173.54853851 189.79283867 164.49666978 173.42592401 153.6875 159.1875 C152.72263672 157.90746094 152.72263672 157.90746094 151.73828125 156.6015625 C135.40892583 135.60194519 116.24127738 119.48995914 92.6875 107.1875 C92.0888916 106.87184082 91.4902832 106.55618164 90.87353516 106.23095703 C35.2031914 77.30708633 -36.32360985 82.04138042 -94.3125 100.1875 C-132.65856386 112.58907869 -169.46763846 132.31159765 -198.9765625 160.00390625 C-201.01759858 161.91183128 -203.10607411 163.71047819 -205.25 165.5 C-226.19052817 183.73158921 -243.24507213 208.74300039 -253.125 234.625 C-253.4031958 235.33906006 -253.6813916 236.05312012 -253.96801758 236.78881836 C-259.10128707 250.92524524 -259.7483924 265.06949232 -259.67326355 279.91662598 C-259.67457449 281.86496751 -259.6772062 283.81330852 -259.68103105 285.76164675 C-259.68769127 291.07290431 -259.67580532 296.38397796 -259.66069686 301.69521213 C-259.64767585 307.43867881 -259.65213023 313.1821361 -259.65440369 318.9256134 C-259.6559726 328.8624566 -259.6466034 338.79924045 -259.62969017 348.73606873 C-259.60525284 363.10283925 -259.59749006 377.46958124 -259.5937262 391.83637029 C-259.58716913 415.14857952 -259.56725409 438.46075715 -259.53881836 461.77294922 C-259.51123657 484.41129391 -259.48999971 507.04963014 -259.47729492 529.68798828 C-259.47670305 530.73589999 -259.47670305 530.73589999 -259.47609923 531.80498163 C-259.47214345 538.82110221 -259.46831604 545.83722286 -259.46458265 552.85334357 C-259.4332939 611.63141651 -259.38038673 670.40945808 -259.3125 729.1875 C-266.27790237 731.02298961 -273.24346319 732.85787672 -280.20920277 734.69208622 C-283.44707594 735.54469694 -286.68488755 736.39753964 -289.92260742 737.25073242 C-298.7178386 739.56833674 -307.51456525 741.88018082 -316.3125 744.1875 C-317.62237837 744.53146283 -318.93225384 744.8754367 -320.24212646 745.21942139 C-324.01863995 746.2107414 -327.79635408 747.19743497 -331.57421875 748.18359375 C-333.30560844 748.63835838 -333.30560844 748.63835838 -335.07197571 749.10231018 C-336.12805527 749.37719772 -337.18413483 749.65208527 -338.2722168 749.93530273 C-339.20075974 750.17804428 -340.12930267 750.42078583 -341.08598328 750.67088318 C-343.3125 751.1875 -343.3125 751.1875 -345.3125 751.1875 C-346.51357167 705.64669726 -346.60836285 660.09664455 -346.80312446 614.54307136 C-346.83799271 606.39646569 -346.87439233 598.24986805 -346.91174126 590.10327339 C-346.91715649 588.92143705 -346.92257172 587.73960072 -346.92815105 586.52195116 C-346.9391816 584.11531181 -346.95021407 581.70867247 -346.96124845 579.30203313 C-347.06421995 556.80160575 -347.16234163 534.30115922 -347.25884294 511.80070329 C-347.33942715 493.04037381 -347.42446965 474.28006927 -347.51293945 455.51977539 C-348.09213477 332.53711203 -348.42096502 209.55763913 -348.3125 31.1875 C-346.39674952 30.70539835 -344.48078375 30.22415219 -342.56472778 29.74326611 C-341.49779757 29.47518019 -340.43086735 29.20709427 -339.33160591 28.93088454 C-335.7922144 28.05939178 -332.25132081 27.29003571 -328.6796875 26.56176758 C-328.01136398 26.42477951 -327.34304047 26.28779144 -326.65446472 26.14665222 C-324.4993563 25.70571432 -322.34348586 25.26865697 -320.1875 24.83203125 C-318.66721142 24.52255784 -317.14694822 24.21295974 -315.62670898 23.90324402 C-312.4671647 23.26024791 -309.30721418 22.61929639 -306.14697266 21.97973633 C-302.09995123 21.16045601 -298.05419148 20.3351178 -294.00872803 19.50818348 C-290.88147676 18.86978119 -287.75350235 18.23498201 -284.62530518 17.60123253 C-283.13233861 17.29823374 -281.63961868 16.99401705 -280.14715576 16.68854713 C-278.06889163 16.26364851 -275.98968265 15.84371953 -273.91015625 15.42504883 C-272.72945557 15.18538895 -271.54875488 14.94572906 -270.33227539 14.69880676 C-267.3125 14.1875 -267.3125 14.1875 -263.3125 14.1875 C-262.9825 62.3675 -262.6525 110.5475 -262.3125 160.1875 C-259.6725 154.2475 -257.0325 148.3075 -254.3125 142.1875 C-252.73092279 139.06447516 -251.16874111 136.02807485 -249.4375 133 C-248.81597046 131.89857666 -248.81597046 131.89857666 -248.18188477 130.77490234 C-239.74517516 116.03252759 -229.93903391 101.96928376 -218.41796875 89.4765625 C-216.56166088 87.45838734 -214.77528192 85.40157267 -213 83.3125 C-204.89722664 74.04951428 -196.06507325 65.68774033 -186.3125 58.1875 C-185.66490723 57.67993164 -185.01731445 57.17236328 -184.35009766 56.64941406 C-171.72420722 46.7937976 -158.48671598 38.63027098 -144.3125 31.1875 C-143.56291016 30.79336914 -142.81332031 30.39923828 -142.04101562 29.99316406 C-109.46081949 13.15447523 -71.73795833 4.03882955 -35.3125 1.1875 C-34.27778564 1.10137451 -33.24307129 1.01524902 -32.17700195 0.92651367 C-21.44728001 0.11175421 -10.75616421 -0.01304671 0 0 Z " fill="#000000" transform="translate(5947.3125,961.8125)"/>
<path d="M0 0 C1.56264902 1.84092899 3.00592212 3.68539833 4.4375 5.625 C5.34298571 6.82739886 6.2492626 8.02920224 7.15625 9.23046875 C7.62546875 9.8548584 8.0946875 10.47924805 8.578125 11.12255859 C10.82632344 14.0910761 13.13063859 17.01448442 15.4375 19.9375 C16.3672046 21.11847612 17.29689202 22.29946577 18.2265625 23.48046875 C19.15101686 24.65366538 20.07549571 25.82684271 21 27 C27.62952832 35.41702036 34.22761923 43.85761347 40.80126953 52.31835938 C45.73658931 58.66783028 50.69850748 64.99591836 55.67333984 71.31445312 C57.95086206 74.20808827 60.22524007 77.10419323 62.5 80 C63.4166523 81.16667796 64.33331895 82.33334464 65.25 83.5 C73.5 94 73.5 94 81.75 104.5 C82.2035083 105.07717773 82.6570166 105.65435547 83.12426758 106.24902344 C84.04343313 107.41890016 84.96254095 108.58882223 85.8815918 109.75878906 C88.13456094 112.62671157 90.38843723 115.4939099 92.64453125 118.359375 C98.38952887 125.65890138 104.10203617 132.983049 109.80126953 140.31835938 C114.73658931 146.66783028 119.69850748 152.99591836 124.67333984 159.31445312 C126.95086206 162.20808827 129.22524007 165.10419323 131.5 168 C132.4166523 169.16667796 133.33331895 170.33334464 134.25 171.5 C136.08333333 173.83333333 137.91666667 176.16666667 139.75 178.5 C140.2035083 179.07717773 140.6570166 179.65435547 141.12426758 180.24902344 C142.04343313 181.41890016 142.96254095 182.58882223 143.8815918 183.75878906 C146.13456094 186.62671157 148.38843723 189.4939099 150.64453125 192.359375 C156.38952887 199.65890138 162.10203617 206.983049 167.80126953 214.31835938 C172.73658931 220.66783028 177.69850748 226.99591836 182.67333984 233.31445312 C185.40576574 236.78605202 188.13445696 240.26059031 190.86254883 243.7355957 C193.22396864 246.74284502 195.58927547 249.74691327 197.9609375 252.74609375 C198.69280273 253.67325195 198.69280273 253.67325195 199.43945312 254.61914062 C200.36132204 255.78684125 201.28439667 256.95359156 202.20898438 258.11914062 C204.46080542 260.97418922 206.61737425 263.86299513 208.6953125 266.84765625 C210.63783183 270.00978919 210.63783183 270.00978919 213 271 C213.20753906 270.34644531 213.41507813 269.69289063 213.62890625 269.01953125 C215.53196311 264.82846871 218.20038496 261.37185108 220.9375 257.6875 C222.12647019 256.06487834 223.31394559 254.44116042 224.5 252.81640625 C225.38945312 251.59848389 225.38945312 251.59848389 226.296875 250.35595703 C228.73434129 246.98417526 231.09385871 243.56239903 233.4375 240.125 C242.31092331 227.13130697 251.38329931 214.2758355 260.46508789 201.42724609 C266.07546373 193.48592242 271.64586953 185.51667976 277.21777344 177.54833984 C280.14376733 173.3645694 283.0719831 169.18235476 286 165 C287.16667759 163.33334098 288.33334425 161.66667431 289.5 160 C301.16666667 143.33333333 312.83333333 126.66666667 324.5 110 C325.07766113 109.1747583 325.65532227 108.3495166 326.25048828 107.49926758 C327.41548364 105.83501172 328.5805226 104.17078639 329.74560547 102.5065918 C332.68820411 98.30329077 335.63000904 94.09943819 338.5703125 89.89453125 C344.51694129 81.39189535 350.47678902 72.89909294 356.46582031 64.42626953 C362.67394633 55.63859544 368.83457926 46.81765882 375 38 C377.5204094 34.3955366 380.04132272 30.79142632 382.5625 27.1875 C383.41980713 25.96099731 383.41980713 25.96099731 384.29443359 24.7097168 C387.50434888 20.12133656 390.73718556 15.55092741 394 11 C398.77984078 14.0230846 402.95912605 17.44061791 407.1875 21.1875 C411.57016746 25.03089393 415.96525169 28.83548825 420.5 32.5 C424.91669226 36.07541754 429.21776142 39.76603802 433.5 43.5 C441.18107169 50.19544745 449.03886369 56.63959039 457 63 C455.44464957 67.7842943 452.73713305 71.21557565 449.6875 75.125 C445.07532508 81.14744555 440.68553809 87.27814921 436.4375 93.5625 C432.11057757 99.95413645 427.68479247 106.2435364 423.08911133 112.44433594 C419.70142719 117.02165865 416.39788617 121.65249033 413.125 126.3125 C408.96039328 132.24069363 404.75152255 138.13382299 400.5 144 C394.25946283 152.61518915 388.11798519 161.29751942 382 170 C375.34512836 179.46617056 368.64575045 188.89571236 361.85791016 198.26708984 C356.16955257 206.12955842 350.58109803 214.06121039 345 222 C338.34454829 231.46699567 331.64579328 240.89827044 324.85571289 250.26928711 C320.69611382 256.01704034 316.59663277 261.80493983 312.51733398 267.60986328 C308.9116111 272.73219942 305.24596288 277.80837945 301.5625 282.875 C297.07451526 289.05159319 292.71873887 295.30355319 288.4375 301.625 C284.4080641 307.56959456 280.27713245 313.40276691 275.9375 319.125 C271.64508798 324.8027557 267.36917805 330.48994649 263.1875 336.25 C262.65310303 336.96559082 262.11870605 337.68118164 261.56811523 338.41845703 C260.84410522 339.42561768 260.84410522 339.42561768 260.10546875 340.453125 C259.45807739 341.33726074 259.45807739 341.33726074 258.79760742 342.23925781 C257.82505102 343.98612213 257.82505102 343.98612213 258.22680664 346.00439453 C259.03354596 348.08658184 259.96293003 349.66523954 261.265625 351.4765625 C261.97223267 352.46837524 261.97223267 352.46837524 262.69311523 353.48022461 C263.20688721 354.18800049 263.72065918 354.89577637 264.25 355.625 C264.7850415 356.37209229 265.32008301 357.11918457 265.87133789 357.88891602 C267.57469272 360.26380716 269.28677648 362.63222102 271 365 C272.07713952 366.49586582 273.15396829 367.99195546 274.23046875 369.48828125 C276.93372309 373.2413351 279.64510871 376.98843782 282.35888672 380.73388672 C285.07648173 384.486448 287.78794473 388.24343419 290.5 392 C291.58330362 393.50002146 292.66663696 395.00002146 293.75 396.5 C339.25 459.5 384.75 522.5 430.25 585.5 C431.05473755 586.6142334 431.05473755 586.6142334 431.87573242 587.75097656 C432.95667191 589.24768701 434.03756401 590.74443168 435.1184082 592.24121094 C437.8629754 596.04182637 440.60841966 599.84180298 443.35546875 603.640625 C448.65682231 610.97333833 453.94655437 618.31361844 459.19873047 625.68164062 C464.2098587 632.70564895 469.27069471 639.69378507 474.32666016 646.68554688 C477.58955066 651.19856146 480.84978906 655.71349377 484.10888672 660.22924805 C486.89960412 664.09529937 489.6944739 667.95824662 492.49609375 671.81640625 C493.07230469 672.61111328 493.64851563 673.40582031 494.2421875 674.22460938 C495.3306394 675.72561966 496.42037315 677.22570171 497.51171875 678.72460938 C501.13963518 683.73169506 504.60321809 688.83354224 508 694 C502.40536132 699.12532578 496.6332827 703.92417706 490.64794922 708.5793457 C486.04920286 712.16055686 481.51421674 715.81294437 477 719.5 C471.81966959 723.72333418 466.62158454 727.92164725 461.375 732.0625 C460.81941406 732.50335937 460.26382813 732.94421875 459.69140625 733.3984375 C456.22965716 736.11898484 452.68750397 738.60256874 449 741 C442.98249937 733.79669777 437.58179165 726.24168681 432.203125 718.55859375 C429.03062493 714.02991785 425.80493303 709.54128451 422.5625 705.0625 C422.02278564 704.31677734 421.48307129 703.57105469 420.92700195 702.80273438 C419.83195428 701.29034735 418.73665781 699.77814043 417.64111328 698.26611328 C414.92351827 694.513552 412.21205527 690.75656581 409.5 687 C408.41669638 685.49997854 407.33336304 683.99997854 406.25 682.5 C399.75 673.5 393.25 664.5 386.75 655.5 C385.94526245 654.3857666 385.94526245 654.3857666 385.12426758 653.24902344 C384.04332809 651.75231299 382.96243599 650.25556832 381.8815918 648.75878906 C379.1370246 644.95817363 376.39158034 641.15819702 373.64453125 637.359375 C368.34317769 630.02666167 363.05344563 622.68638156 357.80126953 615.31835938 C354.44693481 610.61664872 351.0701389 605.93137983 347.6875 601.25 C347.14037354 600.49275635 346.59324707 599.7355127 346.02954102 598.95532227 C343.25629293 595.11834037 340.480812 591.28298829 337.703125 587.44921875 C331.92265032 579.46579559 326.18828386 571.4535138 320.51708984 563.39208984 C315.28892951 555.97053547 309.967477 548.61734946 304.64111328 541.26611328 C301.92351827 537.513552 299.21205527 533.75656581 296.5 530 C295.41669638 528.49997854 294.33336304 526.99997854 293.25 525.5 C286.75 516.5 280.25 507.5 273.75 498.5 C273.2135083 497.75717773 272.6770166 497.01435547 272.12426758 496.24902344 C271.04332809 494.75231299 269.96243599 493.25556832 268.8815918 491.75878906 C266.1370246 487.95817363 263.39158034 484.15819702 260.64453125 480.359375 C255.34317769 473.02666167 250.05344563 465.68638156 244.80126953 458.31835938 C239.8090304 451.32082755 234.76739183 444.35895006 229.73046875 437.39355469 C226.71448741 433.22190103 223.70115784 429.04833232 220.6875 424.875 C219.58725095 423.35155429 218.48699162 421.828116 217.38671875 420.3046875 C216.59114583 419.203125 215.79557292 418.1015625 215 417 C211.21687276 420.47157559 208.461622 424.42548026 205.5625 428.625 C204.49180028 430.15949292 203.42015406 431.69332577 202.34765625 433.2265625 C201.79609863 434.01579102 201.24454102 434.80501953 200.67626953 435.61816406 C197.98749316 439.43868581 195.24398398 443.21903334 192.5 447 C188.29267528 452.80532006 184.1239065 458.63513034 180 464.5 C175.33863251 471.12922712 170.61055569 477.70728537 165.85546875 484.26953125 C162.20004412 489.32082208 158.58642038 494.39952352 155 499.5 C150.33863251 506.12922712 145.61055569 512.70728537 140.85546875 519.26953125 C137.20004412 524.32082208 133.58642038 529.39952352 130 534.5 C125.33863251 541.12922712 120.61055569 547.70728537 115.85546875 554.26953125 C112.20004412 559.32082208 108.58642038 564.39952352 105 569.5 C100.33863251 576.12922712 95.61055569 582.70728537 90.85546875 589.26953125 C87.20004412 594.32082208 83.58642038 599.39952352 80 604.5 C75.33863251 611.12922712 70.61055569 617.70728537 65.85546875 624.26953125 C62.20004412 629.32082208 58.58642038 634.39952352 55 639.5 C50.33863251 646.12922712 45.61055569 652.70728537 40.85546875 659.26953125 C37.20004412 664.32082208 33.58642038 669.39952352 30 674.5 C25.34015284 681.12706496 20.61412826 687.70335594 15.85986328 694.26293945 C12.15838755 699.37695144 8.50407532 704.5219115 4.875 709.6875 C-0.64199022 717.53867197 -6.29495353 725.28471078 -12 733 C-16.99202753 731.41951252 -20.57723694 728.44592319 -24.625 725.25 C-26.14990371 724.0649405 -27.67598844 722.88139948 -29.203125 721.69921875 C-30.38745117 720.78148682 -30.38745117 720.78148682 -31.59570312 719.84521484 C-35.48182602 716.86274969 -39.42551546 713.9602619 -43.375 711.0625 C-44.15447998 710.49007568 -44.93395996 709.91765137 -45.73706055 709.32788086 C-47.33333589 708.15629812 -48.92993711 706.98515926 -50.52685547 705.81445312 C-54.83516834 702.65360601 -59.13598189 699.48258399 -63.4375 696.3125 C-64.23655762 695.72412354 -65.03561523 695.13574707 -65.85888672 694.52954102 C-66.60541504 693.97967529 -67.35194336 693.42980957 -68.12109375 692.86328125 C-68.7752124 692.38157471 -69.42933105 691.89986816 -70.10327148 691.40356445 C-72.07533622 689.94425178 -74.0389098 688.47401849 -76 687 C-74.38096893 681.95533613 -71.36962467 678.1374349 -68.25 673.9375 C-67.06769557 672.32387924 -65.88675395 670.70925923 -64.70703125 669.09375 C-64.09553223 668.25714844 -63.4840332 667.42054688 -62.85400391 666.55859375 C-59.83115406 662.3869495 -56.88320913 658.16380964 -53.9375 653.9375 C-52.76177522 652.25256476 -51.58599438 650.56766864 -50.41015625 648.8828125 C-49.8392627 648.06458008 -49.26836914 647.24634766 -48.68017578 646.40332031 C-46.08994234 642.69825521 -43.48384623 639.00447372 -40.875 635.3125 C-40.38765381 634.622771 -39.90030762 633.93304199 -39.39819336 633.22241211 C-38.42149396 631.84041899 -37.44468782 630.45850131 -36.46777344 629.07666016 C-33.97679014 625.55232484 -31.48855097 622.02605299 -29 618.5 C-28.00001278 617.08332432 -27.00001278 615.66665764 -26 614.25 C-25.505 613.54875 -25.01 612.8475 -24.5 612.125 C76 469.75 76 469.75 77.49951172 467.62573242 C78.50119043 466.20666042 79.5028179 464.78755225 80.50439453 463.3684082 C82.97829495 459.86324726 85.45303366 456.35868485 87.9296875 452.85546875 C93.30505144 445.24990063 98.66255014 437.63223195 104 430 C109.82123683 421.67598181 115.668542 413.37081651 121.53222656 405.07666016 C124.02320986 401.55232484 126.51144903 398.02605299 129 394.5 C129.99998722 393.08332432 130.99998722 391.66665764 132 390.25 C132.495 389.54875 132.99 388.8475 133.5 388.125 C138 381.75 138 381.75 139.50146484 379.62304688 C140.49673555 378.21299897 141.49185391 376.80284352 142.48681641 375.39257812 C145.05790598 371.7487265 147.631991 368.10704598 150.2109375 364.46875 C155.2365141 357.37377313 160.24376486 350.27992854 165 343 C164.27296875 342.1028125 163.5459375 341.205625 162.796875 340.28125 C156.93941378 333.02292032 151.2156064 325.68859028 145.65014648 318.20410156 C141.77160741 312.99917383 137.808603 307.86509762 133.8125 302.75 C129.25290489 296.91165159 124.75063512 291.04163327 120.32421875 285.1015625 C115.82691141 279.10011372 111.25069156 273.15848006 106.68945312 267.20556641 C103.95733178 263.63880568 101.22880728 260.06929641 98.5 256.5 C97.4166848 255.08331947 96.33335145 253.66665282 95.25 252.25 C88.75 243.75 82.25 235.25 75.75 226.75 C74.94598755 225.6986084 74.94598755 225.6986084 74.12573242 224.62597656 C73.03993353 223.20607316 71.95415888 221.78615122 70.8684082 220.36621094 C68.19799415 216.87391567 65.52719105 213.38191954 62.85546875 209.890625 C56.20904096 201.20420453 49.5756643 192.50794198 42.94873047 183.80664062 C37.16769591 176.21720838 31.37460822 168.637062 25.57666016 161.06054688 C22.8836179 157.54099335 20.1918862 154.02043774 17.5 150.5 C16.41667271 149.08332872 15.33333938 147.66666204 14.25 146.25 C12.08333333 143.41666667 9.91666667 140.58333333 7.75 137.75 C6.94598755 136.6986084 6.94598755 136.6986084 6.12573242 135.62597656 C5.03993353 134.20607316 3.95415888 132.78615122 2.8684082 131.36621094 C0.19799415 127.87391567 -2.47280895 124.38191954 -5.14453125 120.890625 C-11.79095904 112.20420453 -18.4243357 103.50794198 -25.05126953 94.80664062 C-30.29936987 87.91685273 -35.55663581 81.0341428 -40.8203125 74.15625 C-43.06716784 71.2203216 -45.31159514 68.28255434 -47.5546875 65.34375 C-48.14161377 64.57514648 -48.72854004 63.80654297 -49.33325195 63.01464844 C-50.45202147 61.54949158 -51.57037621 60.08401786 -52.68823242 58.61816406 C-53.19459229 57.95526367 -53.70095215 57.29236328 -54.22265625 56.609375 C-54.93252686 55.67448242 -54.93252686 55.67448242 -55.65673828 54.72070312 C-56.86454313 53.17351872 -58.14518738 51.6838617 -59.43359375 50.203125 C-59.95050781 49.47609375 -60.46742187 48.7490625 -61 48 C-59.72317389 44.16952167 -57.44145564 42.79712787 -54.3125 40.5 C-53.11398831 39.59974996 -51.91609127 38.69868114 -50.71875 37.796875 C-50.1 37.33345703 -49.48125 36.87003906 -48.84375 36.39257812 C-45.96713669 34.21988184 -43.14033002 31.98558638 -40.3125 29.75 C-32.61839539 23.68814317 -24.88818106 17.67321241 -17.14794922 11.67041016 C-15.10544269 10.08200033 -13.0694412 8.48563687 -11.03515625 6.88671875 C-9.85683127 5.96606848 -8.67844969 5.04549063 -7.5 4.125 C-5.96859375 2.92230469 -5.96859375 2.92230469 -4.40625 1.6953125 C-2 0 -2 0 0 0 Z " fill="#000000" transform="translate(7109,987)"/>
<path d="M0 0 C0.53172728 87.24317624 1.03124151 174.48638585 1.38891602 261.73046875 C1.39451455 263.09511374 1.39451455 263.09511374 1.40022618 264.48732731 C1.49722018 288.14815667 1.59126812 311.80899746 1.68416781 335.46984321 C1.73934328 349.51878736 1.79518506 363.56772876 1.85142326 377.6166687 C1.85755871 379.14970627 1.85755871 379.14970627 1.86381811 380.71371429 C1.88044512 384.86814683 1.89707418 389.02257936 1.91370669 393.17701187 C2.06722333 431.52492747 2.21900077 469.87284977 2.36990998 508.22077571 C2.50281456 541.99061447 2.63734672 575.76044639 2.77319336 609.53027344 C2.9278706 647.98247335 3.08151906 686.43467716 3.23357147 724.88688755 C3.24984321 729.00113997 3.26611736 733.11539237 3.2823925 737.22964478 C3.28639545 738.24179018 3.2903984 739.25393558 3.29452266 740.29675206 C3.35404409 755.34239904 3.41431173 770.3880429 3.47497749 785.4336853 C3.54389638 802.52718925 3.61166152 819.62069738 3.67802257 836.71421146 C3.71168069 845.37702702 3.7457719 854.03984019 3.78133202 862.70264816 C3.9770505 910.46863217 4.03398641 958.23362581 4 1006 C1.2041971 1006.48914833 -1.59161046 1006.97827008 -4.38742065 1007.46737671 C-5.56628357 1007.67363253 -5.56628357 1007.67363253 -6.76896191 1007.88405514 C-12.67878476 1008.91790475 -18.58913915 1009.94866333 -24.5 1010.9765625 C-30.31399007 1011.98764509 -36.12777478 1012.99982054 -41.94042969 1014.01855469 C-46.62752074 1014.83994965 -51.31544875 1015.65640007 -56.00399399 1016.4694519 C-57.7912238 1016.78026963 -59.57814668 1017.09285768 -61.36474991 1017.40725708 C-63.87014013 1017.847832 -66.37655484 1018.28205898 -68.88330078 1018.71484375 C-69.61913895 1018.84575409 -70.35497711 1018.97666443 -71.1131134 1019.11154175 C-75.13317476 1019.79805903 -78.92933566 1020.04894497 -83 1020 C-83.37535194 936.333503 -83.71016684 852.66683738 -84.55420697 589.31208324 C-84.55973401 587.31295616 -84.56526778 585.31382909 -84.57080829 583.31470203 C-84.86046321 478.7939385 -85.04656805 374.27351179 -85 21 C-75.95005882 18.7046646 -66.90006147 16.40955081 -57.84999466 14.11471081 C-53.64655145 13.04882975 -49.44312677 11.98287571 -45.23974609 10.91674805 C-41.17435895 9.88562345 -37.10892097 8.85469951 -33.0434494 7.82390785 C-31.50150535 7.43291509 -29.95957885 7.0418531 -28.4176712 6.65071678 C-24.88575205 5.75479499 -21.3536406 4.85965649 -17.82092285 3.96688843 C-15.33503295 3.33783145 -12.84988178 2.70584547 -10.36560059 2.07046509 C-9.28170044 1.79495819 -8.19780029 1.51945129 -7.08105469 1.2355957 C-6.14122742 0.99533157 -5.20140015 0.75506744 -4.23309326 0.50752258 C-2 0 -2 0 0 0 Z " fill="#000000" transform="translate(5242,685)"/>
<path d="M0 0 C0 238.26 0 476.52 0 722 C-68 736 -68 736 -72 736 C-72.77985558 677.93150969 -73.23631432 619.8656133 -73.49062446 561.79257661 C-73.52576119 553.77568806 -73.56213483 545.75880586 -73.59924126 537.74192619 C-73.60465649 536.57142023 -73.61007172 535.40091427 -73.61565105 534.19493843 C-73.62668209 531.81107807 -73.63771456 529.42721771 -73.64874845 527.04335736 C-73.75094131 504.9318241 -73.84931035 482.82027514 -73.94634294 460.70871871 C-74.02770776 442.19064319 -74.11274377 423.67258759 -74.20043945 405.15454102 C-74.72039843 295.24237445 -75.11846171 185.33278029 -75 33 C-73.10072435 32.04455427 -71.20077077 31.09045608 -69.30053711 30.13691711 C-67.71359291 29.33972747 -67.71359291 29.33972747 -66.09458923 28.52643299 C-61.96830282 26.49110641 -57.78343508 24.62165342 -53.5625 22.79296875 C-52.716875 22.42327469 -51.87125 22.05358063 -51 21.67268372 C-48.33462168 20.50797607 -45.6674394 19.34747844 -43 18.1875 C-39.49930434 16.66174715 -35.99954073 15.13386838 -32.5 13.60546875 C-31.64180664 13.23146942 -30.78361328 12.85747009 -29.89941406 12.47213745 C-25.35218499 10.485653 -20.81880085 8.47253999 -16.30078125 6.42041016 C-15.38039062 6.00261795 -14.46 5.58482574 -13.51171875 5.15437317 C-11.74582353 4.35059815 -9.98143253 3.54350801 -8.21875 2.73271179 C-7.43113281 2.37401505 -6.64351562 2.0153183 -5.83203125 1.64575195 C-4.79139526 1.16788994 -4.79139526 1.16788994 -3.72973633 0.68037415 C-2 0 -2 0 0 0 Z " fill="#000000" transform="translate(5461,973)"/>
<path d="M0 0 C3.00874098 1.33803458 4.98385643 2.77584376 7.20703125 5.1953125 C8.08137817 6.1392688 8.08137817 6.1392688 8.97338867 7.10229492 C9.58029541 7.7697876 10.18720215 8.43728027 10.8125 9.125 C11.44196533 9.80860596 12.07143066 10.49221191 12.7199707 11.1965332 C16.28081369 15.07525084 19.79583252 18.9893345 23.23046875 22.98046875 C25.60884536 25.69486324 28.05514079 28.34567494 30.5 31 C34.15314663 34.96866807 37.76242702 38.96805906 41.296875 43.04296875 C44.49962159 46.72318902 47.75410388 50.35785163 51 54 C49.68904505 56.95311939 48.3658972 58.82764609 45.91015625 60.91796875 C45.29648193 61.44527588 44.68280762 61.97258301 44.05053711 62.51586914 C43.39448486 63.06750732 42.73843262 63.61914551 42.0625 64.1875 C41.38517822 64.76556396 40.70785645 65.34362793 40.01000977 65.93920898 C35.32852045 69.92099362 30.58468618 73.82369395 25.80859375 77.69140625 C22.49701436 80.4134416 19.24689272 83.20142301 16 86 C10.84446308 90.44232035 5.63621357 94.80212819 0.34765625 99.0859375 C-1.65082266 100.71531298 -3.61032253 102.37845293 -5.5625 104.0625 C-8 106 -8 106 -10 106 C-11.35097374 104.48848454 -12.62927345 102.91186687 -13.875 101.3125 C-17.42451874 96.86704164 -21.10555228 92.64500393 -25 88.5 C-28.63011959 84.62590089 -32.11753742 80.71093031 -35.4375 76.5625 C-39.50252717 71.4960519 -43.85160866 66.75333665 -48.30834961 62.03344727 C-49.8819707 60.36441094 -51.44279481 58.68435358 -53 57 C-53.58217285 56.38189453 -54.1643457 55.76378906 -54.76416016 55.12695312 C-55.32280762 54.51271484 -55.88145508 53.89847656 -56.45703125 53.265625 C-56.96854736 52.71165039 -57.48006348 52.15767578 -58.00708008 51.58691406 C-58.33474365 51.06323242 -58.66240723 50.53955078 -59 50 C-57.66464967 45.993949 -55.00655761 44.44327973 -51.75 42 C-46.89538084 38.27829094 -42.13879194 34.4876831 -37.5 30.5 C-32.54953028 26.25749339 -27.47647557 22.20992605 -22.32495117 18.21508789 C-17.25726986 14.25939255 -12.37473074 10.10725532 -7.52954102 5.88305664 C-5.08563094 3.75712343 -2.69985776 1.79990517 0 0 Z " fill="#000000" transform="translate(5427,698)"/>
<path d="M0 0 C4.95 0 9.9 0 15 0 C17.7963124 6.83924339 20.33778026 13.70564059 22.671875 20.71484375 C22.99915588 21.69240128 23.32643677 22.6699588 23.66363525 23.67713928 C24.34742498 25.72281055 25.02967981 27.76899547 25.71044922 29.81567383 C26.75588056 32.95515963 27.80933969 36.09187796 28.86328125 39.22851562 C29.52913154 41.22379631 30.19451314 43.21923348 30.859375 45.21484375 C31.33271271 46.62104225 31.33271271 46.62104225 31.81561279 48.0556488 C32.24671356 49.3582943 32.24671356 49.3582943 32.68652344 50.68725586 C32.94093201 51.44985214 33.19534058 52.21244843 33.4574585 52.99815369 C34 55 34 55 34 58 C34.66 58 35.32 58 36 58 C36.13051758 56.61808472 36.13051758 56.61808472 36.26367188 55.20825195 C37.04141898 49.81174455 38.97230093 44.79002558 40.78125 39.66796875 C41.15479614 38.59501053 41.52834229 37.52205231 41.91320801 36.4165802 C43.10284171 33.00476975 44.30146107 29.5961909 45.5 26.1875 C46.30654565 23.87584498 47.11254128 21.56399798 47.91796875 19.25195312 C50.86437408 10.81450219 50.86437408 10.81450219 52.34179688 6.61401367 C52.63856323 5.76908859 52.93532959 4.92416351 53.24108887 4.05363464 C54 2 54 2 55 0 C59.62 0 64.24 0 69 0 C69 23.76 69 47.52 69 72 C65.7 72 62.4 72 59 72 C58.67 54.51 58.34 37.02 58 19 C56.71222656 22.74214844 55.42445312 26.48429687 54.09765625 30.33984375 C52.85397105 33.94742607 51.60928605 37.55466196 50.36450195 41.16186523 C49.49724263 43.67680343 48.63102975 46.19210273 47.76586914 48.70776367 C46.52502348 52.31523656 45.28046977 55.92141114 44.03515625 59.52734375 C43.64658951 60.65961899 43.25802277 61.79189423 42.85768127 62.95848083 C42.49738327 63.99948441 42.13708527 65.04048798 41.76586914 66.11303711 C41.44832169 67.03459091 41.13077423 67.95614471 40.80360413 68.90562439 C40 71 40 71 39 72 C35.99996555 72.14177857 33.00242765 72.04228771 30 72 C27.20703221 65.20475348 24.67750055 58.35860292 22.328125 51.3984375 C22.03728027 50.54354736 21.74643555 49.68865723 21.44677734 48.80786133 C20.37825351 45.66456918 19.31438673 42.51969547 18.25 39.375 C14.66125 28.794375 14.66125 28.794375 11 18 C10.67 35.82 10.34 53.64 10 72 C6.7 72 3.4 72 0 72 C0 48.24 0 24.48 0 0 Z " fill="#000000" transform="translate(7768,1587)"/>
<path d="M0 0 C4.62 0 9.24 0 14 0 C16.81371487 6.87133072 19.34772746 13.76984005 21.671875 20.8203125 C21.99915588 21.80498505 22.32643677 22.78965759 22.66363525 23.8041687 C23.69527673 26.91017443 24.72270892 30.01755304 25.75 33.125 C26.45414772 35.24748853 27.15857226 37.36988525 27.86328125 39.4921875 C29.57871939 44.66040223 31.29071578 49.82974693 33 55 C34.82687214 52.2596918 35.73472206 50.18386635 36.77172852 47.10131836 C37.10870255 46.10696274 37.44567657 45.11260712 37.79286194 44.08811951 C38.15125656 43.01618851 38.50965118 41.94425751 38.87890625 40.83984375 C39.25103745 39.73902969 39.62316864 38.63821564 40.00657654 37.50404358 C41.19603667 33.98324721 42.37953242 30.46048258 43.5625 26.9375 C44.75005323 23.41129922 45.93884398 19.88552227 47.12913513 16.36024475 C47.86994516 14.16509016 48.60897397 11.96933353 49.34608459 9.77293396 C49.8468174 8.28612877 49.8468174 8.28612877 50.35766602 6.76928711 C50.65141617 5.89453232 50.94516632 5.01977753 51.24781799 4.11851501 C52 2 52 2 53 0 C57.29 0 61.58 0 66 0 C66 23.1 66 46.2 66 70 C63.03 70 60.06 70 57 70 C56.67 52.84 56.34 35.68 56 18 C51.19724363 32.11965323 51.19724363 32.11965323 46.3972168 46.24023438 C45.78964874 48.02477294 45.18198876 49.80928021 44.57421875 51.59375 C44.2656897 52.50286133 43.95716064 53.41197266 43.63928223 54.34863281 C41.84838308 59.6025062 39.97683275 64.81312961 38 70 C34.7 70 31.4 70 28 70 C25.91788703 64.0412183 23.83661732 58.08214297 21.75610352 52.12280273 C21.04929989 50.0986347 20.34227226 48.07454486 19.63500977 46.05053711 C18.61414587 43.12895271 17.5941075 40.20708118 16.57421875 37.28515625 C16.26159592 36.39103531 15.94897308 35.49691437 15.62687683 34.57569885 C15.32679214 33.7154863 15.02670746 32.85527374 14.7175293 31.96899414 C14.45771774 31.22508926 14.19790619 30.48118439 13.93022156 29.71473694 C12.59509027 25.81832088 11.30248354 21.90745061 10 18 C9.67 35.16 9.34 52.32 9 70 C6.03 70 3.06 70 0 70 C0 46.9 0 23.8 0 0 Z " fill="#000000" transform="translate(2571,2170)"/>
<path d="M0 0 C18.81 0 37.62 0 57 0 C57 3.3 57 6.6 57 10 C49.08 10 41.16 10 33 10 C33 30.46 33 50.92 33 72 C29.7 72 26.4 72 23 72 C23 51.54 23 31.08 23 10 C15.41 10 7.82 10 0 10 C0 6.7 0 3.4 0 0 Z " fill="#000000" transform="translate(7703,1587)"/>
<path d="M0 0 C18.15 0 36.3 0 55 0 C55 3.3 55 6.6 55 10 C47.41 10 39.82 10 32 10 C32 29.8 32 49.6 32 70 C28.7 70 25.4 70 22 70 C22 50.2 22 30.4 22 10 C14.74 10 7.48 10 0 10 C0 6.7 0 3.4 0 0 Z " fill="#000000" transform="translate(2507,2170)"/>
</svg>
